{
  "accessors": [
    {
      "bufferView": 2,
      "componentType": 5126,
      "count": 4547,
      "max": [
        1.3370100259780884,
        2.818959951400757,
        5.051559925079346
      ],
      "min": [
        -2.818959951400757,
        -2.818959951400757,
        0.046140000224113464
      ],
      "type": "VEC3"
    },
    {
      "bufferView": 2,
      "byteOffset": 54564,
      "componentType": 5126,
      "count": 4547,
      "max": [
        1.0,
        1.0,
        1.0
      ],
      "min": [
        -1.0,
        -1.0,
        -1.0
      ],
      "type": "VEC3"
    },
    {
      "bufferView": 1,
      "componentType": 5126,
      "count": 4547,
      "max": [
        0.9994400143623352,
        0.9943699836730957
      ],
      "min": [
        0.0005600000149570405,
        0.0005600000149570405
      ],
      "type": "VEC2"
    },
    {
      "bufferView": 0,
      "componentType": 5125,
      "count": 7464,
      "type": "SCALAR"
    },
    {
      "bufferView": 2,
      "byteOffset": 109128,
      "componentType": 5126,
      "count": 5262,
      "max": [
        1.3667099475860596,
        2.852720022201538,
        5.0832600593566895
      ],
      "min": [
        -2.852720022201538,
        -2.852720022201538,
        0.012439999729394913
      ],
      "type": "VEC3"
    },
    {
      "bufferView": 2,
      "byteOffset": 172272,
      "componentType": 5126,
      "count": 5262,
      "max": [
        1.0,
        1.0,
        0.999996542930603
      ],
      "min": [
        -1.0,
        -1.0,
        -0.9995687007904053
      ],
      "type": "VEC3"
    },
    {
      "bufferView": 1,
      "byteOffset": 36376,
      "componentType": 5126,
      "count": 5262,
      "max": [
        0.9994400143623352,
        0.9943699836730957
      ],
      "min": [
        0.0005600000149570405,
        0.0005600000149570405
      ],
      "type": "VEC2"
    },
    {
      "bufferView": 0,
      "byteOffset": 29856,
      "componentType": 5125,
      "count": 7464,
      "type": "SCALAR"
    }
  ],
  "asset": {
    "extras": {
      "author": "makcutka250 (https://sketchfab.com/makcutka250)",
      "license": "CC-BY-4.0 (http://creativecommons.org/licenses/by/4.0/)",
      "source": "https://sketchfab.com/3d-models/robot-bda65b16f2c3491e96bb66e4321480b9",
      "title": "Robot"
    },
    "generator": "Sketchfab-12.68.0",
    "version": "2.0"
  },
  "bufferViews": [
    {
      "buffer": 0,
      "byteLength": 59712,
      "name": "floatBufferViews",
      "target": 34963
    },
    {
      "buffer": 0,
      "byteLength": 78472,
      "byteOffset": 59712,
      "byteStride": 8,
      "name": "floatBufferViews",
      "target": 34962
    },
    {
      "buffer": 0,
      "byteLength": 235416,
      "byteOffset": 138184,
      "byteStride": 12,
      "name": "floatBufferViews",
      "target": 34962
    }
  ],
  "buffers": [
    {
      "byteLength": 373600,
      "uri": "scene.bin"
    }
  ],
  "extensionsUsed": [
    "KHR_materials_unlit"
  ],
  "images": [
    {
      "uri": "textures/Body.000_baseColor.png"
    }
  ],
  "materials": [
    {
      "extensions": {
        "KHR_materials_unlit": {}
      },
      "name": "Body.001",
      "pbrMetallicRoughness": {
        "baseColorFactor": [
          0.0,
          0.0,
          0.0,
          1.0
        ],
        "metallicFactor": 0.0
      }
    },
    {
      "alphaMode": "BLEND",
      "doubleSided": true,
      "extensions": {
        "KHR_materials_unlit": {}
      },
      "name": "Body.000",
      "pbrMetallicRoughness": {
        "baseColorTexture": {
          "index": 0
        },
        "metallicFactor": 0.0
      }
    }
  ],
  "meshes": [
    {
      "name": "Body.000_0",
      "primitives": [
        {
          "attributes": {
            "NORMAL": 1,
            "POSITION": 0,
            "TEXCOORD_0": 2
          },
          "indices": 3,
          "material": 1,
          "mode": 4
        }
      ]
    },
    {
      "name": "Body.001_0",
      "primitives": [
        {
          "attributes": {
            "NORMAL": 5,
            "POSITION": 4,
            "TEXCOORD_0": 6
          },
          "indices": 7,
          "material": 0,
          "mode": 4
        }
      ]
    }
  ],
  "nodes": [
    {
      "children": [
        1
      ],
      "matrix": [
        0.19442607462406158,
        0.0,
        0.0,
        0.0,
        0.0,
        4.317126092702441e-17,
        -0.19442607462406158,
        0.0,
        0.0,
        0.19442607462406158,
        4.317126092702441e-17,
        0.0,
        0.0,
        0.0,
        0.0,
        1.0
      ],
      "name": "Sketchfab_model"
    },
    {
      "children": [
        2,
        4
      ],
      "name": "Root"
    },
    {
      "children": [
        3
      ],
      "matrix": [
        -0.0,
        1.0,
        0.0,
        0.0,
        -1.0,
        -0.0,
        0.0,
        0.0,
        0.0,
        0.0,
        1.0,
        0.0,
        0.0,
        0.0,
        0.0,
        1.0
      ],
      "name": "Body.000"
    },
    {
      "mesh": 0,
      "name": "Body.000_0"
    },
    {
      "children": [
        5
      ],
      "matrix": [
        -0.0,
        1.0,
        0.0,
        0.0,
        -1.0,
        -0.0,
        0.0,
        0.0,
        0.0,
        0.0,
        1.0,
        0.0,
        0.0,
        0.0,
        0.0,
        1.0
      ],
      "name": "Body.001"
    },
    {
      "mesh": 1,
      "name": "Body.001_0"
    }
  ],
  "samplers": [
    {
      "magFilter": 9729,
      "minFilter": 9987,
      "wrapS": 10497,
      "wrapT": 10497
    }
  ],
  "scene": 0,
  "scenes": [
    {
      "name": "Sketchfab_Scene",
      "nodes": [
        0
      ]
    }
  ],
  "textures": [
    {
      "sampler": 0,
      "source": 0
    }
  ]
}
