<?xml version="1.0" encoding="UTF-8"?> <!-- Generator: Adobe Illustrator 16.0.0, SVG Export Plug-In . SVG Version: 6.00 Build 0) --> <svg xmlns="http://www.w3.org/2000/svg" xmlns:xlink="http://www.w3.org/1999/xlink" id="Capa_1" x="0px" y="0px" width="640px" height="248px" viewBox="19.5 270.5 640 248" xml:space="preserve"> <g> <path fill-rule="evenodd" clip-rule="evenodd" fill="#CCCCCC" d="M145.97,509.892c-1.383-0.074-2.768-0.154-4.152-0.227 c-16.521-0.885-32.453-4.215-47.45-11.426c-8.663-4.166-16.543-9.533-23.925-15.652c-8.562-7.098-15.962-15.244-22.003-24.602 c-5.155-7.982-9.097-16.555-12.3-25.479c-2.474-6.894-4.281-13.96-5.348-21.207c-0.915-6.215-1.212-12.461-0.969-18.74 c0.568-14.704,3.807-28.799,9.872-42.188c11.383-25.13,29.399-43.922,54.195-56.127c9.873-4.86,20.245-8.219,31.078-10.147 c9.22-1.641,18.518-2.264,27.87-1.883c4.638,0.189,9.283,0.466,13.895,0.975c15.93,1.759,30.924,6.444,44.822,14.535 c10.338,6.019,19.611,13.318,27.431,22.401c12.069,14.022,20.689,29.879,25.389,47.82c1.56,5.955,2.76,11.973,3.397,18.097 c0.666,6.4,0.726,12.812,0.169,19.223c-1.925,22.146-9.693,42.033-23.062,59.772c-11.663,15.475-26.486,26.92-44.141,34.785 c-8.627,3.844-17.6,6.529-26.901,8.141c-6.068,1.049-12.18,1.656-18.335,1.846c-0.206,0.006-0.411,0.055-0.615,0.082 C151.913,509.892,148.942,509.892,145.97,509.892z M233.649,395.326c-0.145-8.906-0.536-15.527-1.845-24.874 c-0.773-5.526-1.866-10.991-3.515-16.327c-4.341-14.051-11.529-26.458-21.599-37.184c-6.359-6.773-13.615-12.355-22.049-16.301 c-12.416-5.81-25.506-8.337-39.195-7.805c-8.088,0.315-15.945,1.824-23.523,4.667c-15.944,5.982-28.662,16.104-38.328,30.086 c-9.853,14.25-15.397,30.125-17.729,47.201c-0.745,5.457-1.167,10.941-1.305,16.447c-0.296,11.668,0.468,23.248,2.768,34.71 c2.79,13.91,8.111,26.746,16.2,38.422c7.271,10.496,16.265,19.087,27.537,25.228c14.16,7.715,29.198,11.254,45.335,9.805 c7.207-0.648,14.213-2.172,20.956-4.795c18.477-7.197,32.478-19.604,42.293-36.74c7.616-13.294,11.685-27.733,13.279-42.914 C233.575,408.791,233.783,402.607,233.649,395.326z M142.242,505.338c0-0.451-0.02-0.828,0.006-1.201 c0.025-0.371-0.123-0.484-0.482-0.527c-2.399-0.287-4.804-0.539-7.191-0.91c-9.858-1.527-19.352-4.311-28.276-8.783 c-21.94-10.994-38.285-27.532-48.764-49.769c-6.346-13.467-9.924-27.642-10.491-42.539c-0.32-8.397,0.229-16.744,1.647-25.033 c1.631-9.531,4.325-18.748,8.266-27.578c9.497-21.279,24.202-37.821,44.773-48.984c11.335-6.153,23.446-9.879,36.221-11.502 c1.317-0.167,2.638-0.314,3.963-0.471c0-0.534,0-1.035,0-1.569c-0.211,0-0.381-0.009-0.55,0.001 c-2.945,0.18-5.897,0.278-8.832,0.561c-6.671,0.642-13.187,2.075-19.544,4.188c-16.136,5.359-30.425,13.859-42.584,25.733 c-21.031,20.539-33.067,45.307-34.517,74.902c-0.422,8.622,0.322,17.155,2.146,25.595c2.604,12.052,7.28,23.276,13.593,33.835 c9.414,15.746,22.025,28.344,37.562,38.049c11.356,7.096,23.601,11.904,36.787,14.297c4.238,0.77,8.507,1.268,12.804,1.549 C139.911,505.256,141.048,505.285,142.242,505.338z M156.411,288.034c0.154,0.02,0.282,0.042,0.411,0.052 c5.494,0.46,10.905,1.395,16.226,2.839c9.202,2.5,17.948,6.042,25.856,11.457c8.672,5.938,16.307,12.952,22.183,21.74 c8.088,12.094,13.15,25.419,15.969,39.64c1.435,7.238,2.259,14.553,2.66,21.917c0.396,7.291,0.454,14.58-0.006,21.87 c-0.486,7.708-1.563,15.329-3.224,22.871c-2.627,11.937-7.046,23.146-13.46,33.568c-8.407,13.661-19.842,23.987-34.208,31.054 c-9.65,4.744-19.951,7.24-30.591,8.453c-1.589,0.184-1.593,0.152-1.516,1.682c0.001,0.033,0.03,0.064,0.058,0.121 c0.271,0,0.552,0.014,0.832-0.004c6.955-0.416,13.808-1.467,20.538-3.287c20.274-5.484,36.967-16.434,49.974-32.927 c7.719-9.789,13.182-20.792,17.057-32.602c3.64-11.093,5.392-22.519,5.801-34.159c0.375-10.646-0.203-21.24-2.008-31.753 c-1.525-8.885-3.994-17.49-7.564-25.774c-4.956-11.498-11.566-21.88-20.513-30.716c-11.723-11.578-25.44-19.724-41.335-24.153 c-6.513-1.815-13.146-2.915-19.894-3.315c-1.072-0.064-2.151-0.009-3.244-0.009C156.411,287.036,156.411,287.524,156.411,288.034z"></path> <path fill-rule="evenodd" clip-rule="evenodd" fill="#CCCCCC" d="M90.174,405.781c2.197-0.284,4.311-0.552,6.421-0.83 c7.441-0.987,14.907-1.66,22.417-1.838c8.703-0.202,17.358,0.253,25.928,1.869c6.152,1.16,12.135,2.879,17.8,5.592 c3.736,1.791,7.147,4.038,10.022,7.067c6.598,6.954,6.878,17.715,2.196,24.782c-2.157,3.255-4.928,5.888-8.081,8.144 c-5.099,3.646-10.803,5.699-17.012,6.388c-2.829,0.313-5.661,0.39-8.488-0.038c-3.746-0.566-7.334-1.692-10.838-3.093 c-4.114-1.642-8.192-3.373-12.307-5.014c-5.111-2.037-10.371-3.221-15.933-2.827c-4.123,0.293-7.858,1.532-11.134,4.072 c-2.021,1.566-3.808,3.343-4.887,5.717c-1.56,3.428-0.855,6.658,1.994,9.122c1.662,1.436,3.573,2.444,5.633,3.182 c5.045,1.806,10.291,2.381,15.602,2.498c6.814,0.149,13.58-0.452,20.313-1.46c8.875-1.33,17.502-3.595,25.856-6.88 c9.518-3.742,18.427-8.551,26.276-15.178c6.72-5.676,12.29-12.305,16.405-20.1c3.298-6.248,5.057-12.865,4.544-19.991 c-0.405-5.638-2.369-10.66-5.935-15.044c-3.438-4.228-7.764-7.329-12.568-9.798c-8.35-4.289-17.325-6.439-26.563-7.661 c-4.61-0.61-9.243-0.941-13.89-1.079c-7.375-0.219-14.738,0.01-22.093,0.583c-1.208,0.094-2.416,0.185-3.645,0.279 c0.011-0.11-0.001-0.174,0.024-0.218c2.585-4.636,5.17-9.271,7.77-13.899c0.076-0.138,0.284-0.261,0.443-0.28 c3.95-0.471,7.901-0.927,11.853-1.388c3.762-0.438,7.524-0.879,11.286-1.318c4.083-0.476,8.167-0.949,12.25-1.425 c3.762-0.438,7.524-0.879,11.286-1.317c3.744-0.437,7.486-0.873,11.23-1.308c3.743-0.435,7.487-0.873,11.231-1.299 c0.37-0.042,0.597-0.189,0.792-0.522c5.04-8.647,10.092-17.287,15.141-25.929c0.098-0.167,0.186-0.339,0.313-0.572 c-2.736,0.314-5.364,0.611-7.99,0.918c-6.37,0.745-12.74,1.499-19.111,2.241c-5.728,0.668-11.458,1.322-17.186,1.99 c-6.692,0.78-13.383,1.573-20.075,2.354c-6.05,0.705-12.1,1.404-18.152,2.092c-0.465,0.052-0.723,0.243-0.947,0.657 c-12.619,23.391-25.25,46.772-37.879,70.157C90.391,405.358,90.3,405.539,90.174,405.781z"></path> <path fill-rule="evenodd" clip-rule="evenodd" fill="#CCCCCC" d="M90.174,405.781c0.126-0.242,0.218-0.423,0.314-0.601 c12.629-23.384,25.26-46.766,37.879-70.157c0.224-0.415,0.482-0.605,0.947-0.657c6.052-0.688,12.102-1.388,18.152-2.092 c6.692-0.78,13.383-1.574,20.075-2.354c5.728-0.668,11.458-1.321,17.186-1.99c6.372-0.742,12.741-1.496,19.111-2.241 c2.626-0.307,5.253-0.604,7.99-0.918c-0.127,0.233-0.215,0.406-0.313,0.572c-5.049,8.642-10.101,17.282-15.141,25.929 c-0.195,0.333-0.421,0.48-0.792,0.522c-3.745,0.426-7.488,0.864-11.231,1.299c-3.744,0.436-7.486,0.871-11.23,1.308 c-3.762,0.438-7.524,0.879-11.286,1.317c-4.083,0.476-8.167,0.949-12.25,1.425c-3.762,0.438-7.524,0.88-11.286,1.318 c-3.951,0.46-7.902,0.917-11.853,1.388c-0.159,0.019-0.367,0.142-0.443,0.28c-2.599,4.628-5.184,9.263-7.77,13.899 c-0.025,0.044-0.013,0.107-0.024,0.218c1.229-0.094,2.437-0.185,3.645-0.279c7.355-0.573,14.718-0.802,22.093-0.583 c4.647,0.137,9.28,0.469,13.89,1.079c9.238,1.221,18.213,3.372,26.563,7.661c4.804,2.469,9.13,5.57,12.568,9.798 c3.566,4.384,5.53,9.406,5.935,15.044c0.513,7.126-1.247,13.743-4.544,19.991c-4.115,7.795-9.686,14.424-16.405,20.1 c-7.849,6.627-16.758,11.436-26.276,15.178c-8.354,3.285-16.98,5.55-25.856,6.88c-6.734,1.008-13.499,1.609-20.313,1.46 c-5.312-0.117-10.557-0.692-15.602-2.498c-2.061-0.737-3.971-1.746-5.633-3.182c-2.85-2.464-3.554-5.694-1.994-9.122 c1.079-2.374,2.867-4.15,4.887-5.717c3.276-2.54,7.011-3.779,11.134-4.072c5.562-0.394,10.822,0.79,15.933,2.827 c4.115,1.641,8.193,3.372,12.307,5.014c3.504,1.4,7.093,2.526,10.838,3.093c2.828,0.428,5.66,0.352,8.488,0.038 c6.209-0.688,11.913-2.742,17.012-6.388c3.153-2.256,5.924-4.889,8.081-8.144c4.682-7.067,4.401-17.828-2.196-24.782 c-2.875-3.029-6.286-5.276-10.022-7.067c-5.665-2.713-11.648-4.432-17.8-5.592c-8.57-1.616-17.225-2.071-25.928-1.869 c-7.51,0.178-14.976,0.851-22.417,1.838C94.484,405.229,92.371,405.497,90.174,405.781z"></path> </g> <g> <path fill="#052842" d="M314.613,412.33c-0.908,1.292-2.074,2.104-3.715,2.088c-0.144-0.001-0.287,0.086-0.43,0.131 c0,1.242,0,2.428,0,3.602c1.699,0.257,15.545,0.172,16.41-0.107c0-0.58,0-1.179,0-1.778c0-0.59,0-1.178,0-1.868 c-0.564,0-0.963,0.019-1.357-0.003c-2.867-0.159-4.747-1.924-5.162-4.769c-0.172-1.172-0.151-2.338,0.137-3.464 c0.664-2.601,1.416-5.18,2.139-7.765c0.031-0.109,0.127-0.201,0.229-0.354c5.338,0,10.701,0,16.068,0 c0.094,0.171,0.199,0.301,0.242,0.45c1.105,3.853,2.223,7.702,3.291,11.565c0.178,0.645,0.191,1.35,0.183,2.024 c-0.011,0.889-0.525,1.503-1.315,1.853c-0.36,0.161-0.764,0.255-1.157,0.297c-1.065,0.11-2.135,0.179-3.237,0.267 c0,1.274,0,2.49,0,3.7c12.594,0,25.094,0,37.602,0c0-1.351,0-2.614,0-3.99c-1.229,0-2.386,0.026-3.539-0.007 c-1.645-0.048-2.69-1.024-2.883-2.655c-0.043-0.357-0.043-0.722-0.043-1.082c-0.003-7.385-0.004-14.77,0-22.155 c0.001-0.345,0.051-0.69,0.084-1.12c1.049,0,2.006,0.011,2.963-0.003c1.992-0.028,3.467,0.876,4.482,2.537 c0.396,0.646,0.768,1.336,0.982,2.055c0.449,1.493,0.893,3.003,1.148,4.537c0.703,4.229,1.301,8.477,1.957,12.714 c0.326,2.104,0.763,4.182,1.754,6.099c1.765,3.418,4.751,4.307,8.225,3.325c0.783-0.221,1.527-0.363,2.332-0.363 c23.84,0.009,47.68,0.009,71.521,0.005c0.391,0,0.781-0.036,1.271-0.06c0.25-8.037,0.572-15.984,0.791-23.965 c-0.962,0-1.754,0-2.604,0c-0.068,0.349-0.133,0.656-0.188,0.966c-0.415,2.366-0.757,4.75-1.262,7.098 c-0.637,2.956-1.644,5.787-3.378,8.306c-1.645,2.389-3.887,3.614-6.826,3.574c-3.131-0.043-6.262-0.009-9.391-0.012 c-0.354,0-0.705-0.031-1.219-0.055c0.2-0.502,0.348-0.902,0.518-1.291c7.68-17.564,15.34-35.136,23.072-52.675 c0.832-1.885,0.586-3.721,0.611-5.648c-10.693,0-21.262,0-31.916,0c-0.334,7.425-0.662,14.772-0.993,22.161c0.933,0,1.708,0,2.49,0 c0.042-0.238,0.071-0.396,0.098-0.553c0.386-2.29,0.697-4.597,1.177-6.868c0.523-2.481,1.341-4.879,2.897-6.94 c1.542-2.043,3.534-3.419,6.134-3.612c2.195-0.164,4.404-0.145,6.608-0.19c0.995-0.021,1.991-0.004,3.209-0.004 c-7.938,18.22-15.804,36.271-23.668,54.319c-0.103-0.021-0.206-0.044-0.308-0.065c0.013-6.208,0.359-12.413,0.398-18.622 c-0.95,0-1.764,0-2.479,0c-0.416,2.493-0.732,4.88-1.227,7.228c-0.64,3.043-1.697,5.938-3.601,8.455 c-1.966,2.598-4.501,4.218-7.823,4.342c-1.964,0.072-3.934,0.055-5.898,0.006c-1.882-0.046-3.172-0.859-3.157-3.213 c0.047-7.425,0.016-14.85,0.021-22.275c0-0.347,0.047-0.694,0.07-1.018c3.673-0.69,6.707,0.89,8.102,4.182 c0.742,1.751,1.072,3.606,1.271,5.485c0.125,1.18,0.227,2.362,0.338,3.528c0.909,0,1.688,0,2.48,0c0.041-0.246,0.09-0.4,0.09-0.555 c0.006-9.472,0.009-18.943,0.007-28.415c0-0.198-0.046-0.396-0.075-0.593c-0.006-0.035-0.039-0.067-0.064-0.096 c-0.027-0.028-0.061-0.052-0.065-0.055c-0.81,0-1.589,0-2.397,0c-0.117,1.077-0.21,2.071-0.341,3.06 c-0.269,2.037-0.693,4.035-1.714,5.85c-1.547,2.746-4.484,3.963-7.705,3.136c0-0.398,0-0.832,0-1.266c0-4.456,0-8.91,0-13.365 c0-2.408-0.021-4.816,0.01-7.225c0.023-1.865,0.885-2.773,2.709-2.813c2.085-0.044,4.174-0.04,6.26,0.013 c3.861,0.098,6.607,1.966,8.285,5.414c0.42,0.861,0.84,1.751,1.063,2.676c0.546,2.255,0.996,4.535,1.443,6.813 c0.213,1.083,0.333,2.184,0.501,3.316c0.745,0,1.343,0.006,1.942-0.003c0.15-0.003,0.302-0.05,0.589-0.102 c-0.282-7.381-0.564-14.733-0.849-22.137c-12.676,0-25.211,0-37.783,0c0,1.343,0,2.605,0,3.938 c0.412,0.021,0.766,0.038,1.117,0.055c1.119,0.055,2.25,0.024,3.354,0.184c1.328,0.191,1.867,0.845,2.005,2.165 c0.05,0.478,0.037,0.962,0.037,1.443c0.001,11.278,0.001,22.556,0.001,33.833c0,4.737,0.021,9.473-0.021,14.208 c-0.006,0.82-0.149,1.691-0.455,2.446c-0.484,1.195-1.52,1.563-2.867,1.204c1.096-3.206,1.555-6.505,1.581-9.913 c-0.917,0-1.69,0-2.517,0c-0.048,0.602-0.053,1.122-0.139,1.63c-0.246,1.458-0.472,2.924-0.816,4.359 c-0.165,0.689-0.529,1.449-1.412,1.423c-0.793-0.023-1.14-0.72-1.354-1.367c-0.314-0.948-0.576-1.921-0.766-2.902 c-0.678-3.503-1.316-7.014-2.415-10.418c-0.703-2.179-1.493-4.318-2.715-6.276c-1.169-1.874-2.774-3.197-4.851-3.951 c-0.391-0.143-0.773-0.309-1.369-0.549c0.965-0.229,1.703-0.396,2.438-0.579c5.586-1.389,9.264-4.789,10.73-10.393 c0.988-3.775,0.818-7.56-0.426-11.263c-1.188-3.54-3.396-6.246-6.77-7.934c-2.232-1.115-4.639-1.585-7.1-1.602 c-7.545-0.051-15.091-0.025-22.637-0.023c-0.306,0-0.611,0.061-0.909,0.091c0,1.358,0,2.624,0,4.016 c1.194,0,2.312-0.032,3.425,0.009c1.313,0.048,2.004,0.588,2.313,1.863c0.168,0.693,0.237,1.426,0.238,2.141 c0.013,15.975,0.011,31.948,0.007,47.922c0,0.48,0.01,0.971-0.077,1.44c-0.17,0.918-0.411,1.882-1.339,2.303 c-1.482,0.674-3.621,0.783-4.525-1.271c-0.418-0.95-0.789-1.932-1.077-2.93c-5.239-18.138-10.462-36.281-15.69-54.423 c-0.119-0.414-0.252-0.824-0.369-1.21c-1.183,0-2.246,0-3.338,0c-0.691,2.386-1.361,4.692-2.029,6.999 c-4.484,15.479-8.969,30.956-13.449,46.436C316.356,409.181,315.663,410.836,314.613,412.33z M368.07,381.709 c0.001-6.094-0.01-12.188,0.012-18.281c0.005-1.036,0.119-2.075,0.246-3.105c0.123-0.996,0.766-1.558,1.729-1.749 c2.257-0.448,4.475-0.261,6.624,0.534c1.569,0.581,2.786,1.644,3.429,3.188c0.487,1.173,0.881,2.414,1.096,3.663 c0.58,3.39,0.49,6.789-0.314,10.139c-0.934,3.89-3.762,6.394-7.737,6.831c-1.618,0.178-3.258,0.152-5.083,0.227 C368.07,382.502,368.07,382.105,368.07,381.709z M330.796,370.271c0.087-0.004,0.176-0.007,0.264-0.01 c2.229,7.753,4.457,15.507,6.715,23.365c-4.646,0-9.117,0-13.76,0C326.296,385.765,328.546,378.018,330.796,370.271z"></path> <path fill="#052842" d="M647.915,435.676c-0.393-0.021-0.635-0.062-0.873-0.045c-1.971,0.14-3.203-0.814-3.824-2.619 c-0.35-1.023-0.637-2.066-0.939-3.106c-2.75-9.47-5.49-18.941-8.242-28.41c-4.455-15.32-8.916-30.638-13.377-45.956 c-0.121-0.417-0.27-0.826-0.398-1.214c-1.119,0-2.148,0-3.197,0c-0.141,0.435-0.275,0.809-0.387,1.189 c-4.992,17.085-9.979,34.171-14.98,51.252c-0.338,1.15-0.703,2.314-1.244,3.378c-0.541,1.06-1.256,2.047-2.006,2.978 c-0.646,0.801-1.549,1.098-2.598,0.76c-1.076-0.35-1.635-1.118-1.801-2.192c-0.068-0.434-0.066-0.88-0.066-1.321 c0.002-16.252,0.004-32.506,0.012-48.76c0.002-2.569,0.727-3.277,3.299-3.283c1.029-0.002,2.059,0,3.125,0c0-1.419,0-2.681,0-4.013 c-7.795,0-15.523,0-23.334,0c-0.656,1.917-1.311,3.826-2.014,5.883c-0.412-0.385-0.688-0.661-0.982-0.913 c-1.127-0.962-2.197-2.008-3.406-2.855c-2.793-1.96-5.949-2.477-9.289-2.049c-3.605,0.463-6.604,2.151-9.172,4.647 c-3.869,3.759-6.363,8.34-7.793,13.494c-2.215,7.984-2.338,16.07-0.826,24.186c0.924,4.956,2.82,9.521,5.854,13.58 c1.896,2.538,4.127,4.713,6.998,6.128c5.789,2.852,13.338,2.518,18.436-3.872c0.773-0.969,1.49-1.996,2.115-3.065 c1.863-3.193,2.881-6.688,3.482-10.313c0.195-1.175,0.32-2.362,0.488-3.631c-0.92,0-1.707,0-2.584,0 c-0.09,0.46-0.189,0.921-0.266,1.385c-0.523,3.217-1.23,6.386-2.721,9.313c-1.24,2.436-2.904,4.524-5.299,5.937 c-3.654,2.156-9.268,2.083-12.477-2.876c-0.967-1.495-1.637-3.121-2.178-4.808c-1.369-4.272-1.9-8.694-2.117-13.143 c-0.225-4.606-0.25-9.223,0.135-13.83c0.254-3.043,0.668-6.057,1.496-9c0.771-2.73,1.92-5.274,3.791-7.445 c0.984-1.143,2.146-2.057,3.605-2.517c2.725-0.858,5.15-0.164,7.318,1.556c2.09,1.657,3.514,3.83,4.59,6.243 c1.166,2.615,1.893,5.362,2.41,8.169c0.246,1.332,0.453,2.672,0.686,4.061c0.889,0,1.705,0,2.654,0 c-0.207-6.763-0.41-13.438-0.619-20.251c0.824,0,1.426-0.001,2.025,0.001c0.242,0,0.482-0.007,0.723,0.014 c1.533,0.127,2.236,0.737,2.529,2.247c0.1,0.508,0.154,1.032,0.156,1.549c0.008,16.053,0.008,32.106,0.002,48.158 c0,0.438-0.02,0.885-0.1,1.314c-0.305,1.609-1.07,2.297-2.689,2.386c-0.84,0.048-1.684,0.014-2.527,0.025 c-0.391,0.006-0.781,0.033-1.25,0.055c0,1.336,0,2.596,0,3.845c1.365,0.274,32.332,0.21,33.172-0.057c0-1.186,0-2.369,0-3.651 c-0.521,0-0.957,0.017-1.393-0.001c-2.365-0.1-4.021-1.326-4.758-3.567c-0.354-1.074-0.551-2.188-0.336-3.318 c0.248-1.297,0.502-2.598,0.842-3.873c0.486-1.813,1.053-3.603,1.594-5.432c5.457,0,10.82,0,16.24,0 c0.146,0.442,0.301,0.851,0.42,1.27c1.033,3.583,2.059,7.166,3.088,10.75c2.008,7.014,4.021,14.026,6.021,21.042 c0.164,0.572,0.307,1.171,0.336,1.762c0.063,1.338-0.611,2.243-1.916,2.528c-0.775,0.169-1.588,0.19-2.385,0.248 c-0.467,0.033-0.936,0.007-1.447,0.007c0,1.345,0,2.528,0,3.771c6.744,0,13.42,0,20.156,0 C647.988,438.108,647.991,436.894,647.915,435.676z M608.628,393.764c2.289-7.809,4.549-15.513,6.824-23.274 c0.545,0.758,6.537,21.065,6.877,23.188C621.472,393.927,610.671,394.016,608.628,393.764z"></path> <path fill="#052842" d="M224.982,435.432c-3.217-0.073-5.135-1.83-5.543-5.008c-0.236-1.841,0.15-3.593,0.645-5.333 c2.013-7.094,4.044-14.184,6.069-21.274c0.614-2.152,1.232-4.303,1.859-6.491c5.471,0,10.869,0,16.238,0 c0.091,0.173,0.168,0.272,0.201,0.385c1.139,4.01,2.285,8.018,3.395,12.036c0.146,0.53,0.156,1.113,0.142,1.67 c-0.025,0.977-0.534,1.679-1.433,2.036c-0.439,0.176-0.926,0.27-1.399,0.314c-0.949,0.093-1.904,0.128-2.913,0.188 c0,1.318,0,2.575,0,3.892c17.8,0,35.514,0,53.342,0c0.336-8.144,0.667-16.175,1.001-24.271c-0.947,0-1.731,0-2.59,0 c-0.256,1.365-0.494,2.699-0.758,4.027c-0.611,3.072-1.392,6.098-2.658,8.977c-0.864,1.961-1.979,3.761-3.51,5.28 c-1.343,1.334-2.937,2.051-4.856,2.024c-1.765-0.022-3.531,0.012-5.296-0.013c-0.68-0.01-1.365-0.069-2.036-0.179 c-0.922-0.149-1.532-0.681-1.669-1.642c-0.097-0.673-0.218-1.353-0.219-2.029c-0.013-16.052-0.014-32.103-0.002-48.153 c0.001-0.636,0.099-1.283,0.248-1.9c0.226-0.935,0.821-1.585,1.811-1.692c0.953-0.104,1.917-0.104,2.876-0.146 c0.546-0.024,1.093-0.043,1.743-0.067c0-0.749,0-1.383,0-2.019c0-0.625,0-1.251,0-1.844c-1.789-0.262-21.434-0.213-22.268,0.035 c0,1.26,0,2.524,0,3.873c0.468,0.025,0.859,0.053,1.25,0.068c0.961,0.035,1.931-0.007,2.88,0.114 c1.304,0.168,1.901,0.818,2.065,2.122c0.081,0.635,0.092,1.281,0.092,1.922c0.005,15.69,0.005,31.38,0,47.07 c0,0.642-0.01,1.288-0.089,1.922c-0.236,1.893-1.412,2.733-3.28,2.409c-0.947-0.164-1.64-0.689-2.033-1.528 c-0.424-0.903-0.807-1.838-1.089-2.793c-1.278-4.347-2.522-8.703-3.765-13.061c-4.08-14.3-8.154-28.602-12.233-42.902 c-0.085-0.299-0.21-0.587-0.308-0.856c-1.137,0-2.2,0-3.279,0c-0.168,0.532-0.326,0.984-0.457,1.446 c-1.266,4.475-2.52,8.953-3.793,13.427c-2.03,7.132-4.076,14.259-6.108,21.391c-3.711,13.028-7.416,26.058-11.123,39.085 c-0.507,1.78-1.14,3.504-2.161,5.069c-0.977,1.498-2.195,2.555-4.12,2.443c-0.068-0.003-0.14,0.062-0.281,0.128 c0,1.231,0,2.495,0,3.793c5.496,0,10.923,0,16.414,0c0.008-1.353,0.067-2.614-0.036-3.896 C225.536,435.461,225.26,435.439,224.982,435.432z M236.083,369.256c0.082,0.002,0.163,0.004,0.245,0.005 c2.237,7.849,4.474,15.698,6.742,23.655c-4.611,0-9.113,0-13.788,0C231.481,384.96,233.758,377.101,236.083,369.256z"></path> <path fill="#052842" d="M284.572,357.856c1.622,0.143,2.799,0.918,3.388,2.473c0.313,0.823,0.635,1.646,0.877,2.492 c5.084,17.764,10.159,35.529,15.237,53.294c0.163,0.57,0.353,1.131,0.538,1.723c1.184,0,2.293,0,3.451,0 c0.159-0.495,0.319-0.944,0.448-1.401c3.321-11.847,6.636-23.695,9.959-35.543c1.569-5.596,3.12-11.197,4.749-16.774 c0.401-1.374,0.982-2.719,1.652-3.986c0.797-1.509,2.055-2.45,3.891-2.331c0.191,0.013,0.388-0.038,0.647-0.066 c0-1.252,0-2.469,0-3.671c-0.36-0.058-1.318-0.099-2.604-0.125c-0.734-0.016-1.576-0.025-2.474-0.03 c-0.674-0.005-1.379-0.006-2.095-0.005c-0.269,0-0.538,0.001-0.809,0.002c-0.507,0.002-1.015,0.005-1.517,0.009 c-3.515,0.029-6.729,0.113-7.111,0.236l0,0c0,1.183,0,2.366,0,3.66c0.712,0,1.347-0.016,1.98,0.004 c2.232,0.064,3.528,1.079,4.016,3.24c0.174,0.773,0.221,1.587,0.229,2.384c0.021,1.938-0.352,3.829-0.862,5.689 c-2.652,9.662-5.313,19.322-7.973,28.983c-0.285,1.037-0.58,2.072-0.871,3.107c-0.302-0.357-0.431-0.72-0.537-1.089 c-1.063-3.698-2.126-7.396-3.182-11.096c-2.486-8.71-4.977-17.419-7.438-26.135c-0.248-0.879-0.396-1.806-0.435-2.717 c-0.048-1.103,0.538-1.844,1.611-2.096c0.773-0.181,1.584-0.222,2.381-0.27c0.703-0.043,1.41-0.009,2.156-0.009 c0-1.359,0-2.544,0-3.791c-7.07,0-14.064,0-21.133,0c-0.021,0.476-0.05,0.867-0.054,1.26c-0.008,0.794-0.002,1.588-0.002,2.479 C283.454,357.796,284.014,357.807,284.572,357.856z"></path> <path fill="#052842" d="M486.21,375.581c2.125,0.011,3.666,0.999,4.717,2.812c0.181,0.312,0.361,0.625,0.533,0.941 c3.613,6.666,7.219,13.335,10.846,19.993c0.32,0.587,0.459,1.166,0.455,1.827c-0.018,3.773-0.008,7.546-0.01,11.318 c0,0.321,0.008,0.645-0.031,0.962c-0.127,1.038-0.607,1.6-1.641,1.79c-0.666,0.123-1.354,0.145-2.031,0.159 c-1.07,0.024-2.143,0.007-3.224,0.007c0,1.046,0,1.934,0,2.823c7.718,0,15.331,0,22.993,0c0-0.952,0-1.84,0-2.823 c-0.611,0-1.127,0.003-1.643,0c-1.004-0.011-2.012,0.044-3.006-0.05c-1.623-0.156-2.252-0.888-2.313-2.512 c-0.006-0.201-0.002-0.401-0.002-0.604c0-4.173,0.012-8.347-0.012-12.521c-0.004-0.786,0.166-1.484,0.502-2.19 c2.619-5.505,5.215-11.022,7.826-16.53c0.326-0.688,0.684-1.365,1.084-2.011c1.25-2.017,3.098-3.076,5.439-3.317 c0.383-0.039,0.764-0.104,1.223-0.167c0-0.557,0-0.992,0-1.429c0-0.427,0-0.854,0-1.344c-5.555,0-10.943,0-16.395,0 c0,0.951,0,1.813,0,2.768c0.805,0.059,1.559,0.08,2.305,0.172c2.012,0.25,3.129,1.519,2.943,3.521 c-0.086,0.936-0.361,1.896-0.754,2.755c-1.863,4.087-3.795,8.144-5.707,12.208c-0.125,0.265-0.299,0.506-0.5,0.843 c-0.176-0.275-0.295-0.436-0.389-0.607c-2.793-5.147-5.586-10.296-8.371-15.446c-0.152-0.28-0.287-0.577-0.387-0.88 c-0.457-1.377,0.033-2.203,1.465-2.386c0.713-0.091,1.441-0.07,2.162-0.097c0.586-0.021,1.172-0.037,1.859-0.06 c0-0.729,0.01-1.325-0.004-1.922c-0.006-0.271-0.059-0.544-0.086-0.798c-1.236-0.251-20.027-0.212-20.914,0.032 c-0.21,1.24-0.185,1.849,0.123,2.7C485.573,375.54,485.892,375.58,486.21,375.581z"></path> <path fill="#052842" d="M228.706,438.621c0,0.295,0,0.49,0,0.783c132.333,0,264.557,0,396.823,0 c-0.02-0.319-0.033-0.541-0.049-0.783C493.176,438.621,360.954,438.621,228.706,438.621z"></path> <path fill="#052842" d="M627.089,420.176c-0.4-0.007-0.801-0.01-1.203-0.01c-123.971-0.017-247.941-0.033-371.911-0.049 c-4.093,0-8.187,0.04-12.279,0.047c-5.337,0.008-10.673,0-16.01,0.003c-0.361,0-0.728-0.018-1.081,0.037 c-0.373,0.058-0.524,0.31-0.385,0.778c134.485,0,268.982,0,403.472,0C627.743,420.416,627.54,420.183,627.089,420.176z"></path> <path fill="#052842" d="M360.677,434.776c-0.089,1.416-0.409,1.726-1.774,1.966c-0.245,0.043-0.481,0.126-0.993,0.262 c0.443,0.091,0.598,0.147,0.751,0.148c3.448,0.047,6.897,0.1,10.345,0.113c0.677,0.003,1.369-0.085,2.026-0.243 c2.409-0.58,4.384-1.795,5.452-4.129c1.573-3.438-0.078-7.438-3.692-8.975c-1.718-0.729-3.53-1.026-5.397-1.02 c-2.645,0.012-5.291,0.007-7.936,0.014c-0.22,0-0.439,0.032-0.659,0.051c-0.01,0.074-0.021,0.15-0.03,0.226 c0.104,0.051,0.201,0.124,0.311,0.15c1.559,0.381,1.753,0.581,1.822,2.183c0.051,1.2,0.067,2.405,0.033,3.607 C360.88,431.012,360.795,432.895,360.677,434.776z M364.464,429.219c0.06-1.161,0.137-2.8,0.231-4.439 c0.054-0.914,0.144-0.988,1.076-1.062c3.845-0.303,6.706,2.156,6.921,6.011c0.05,0.909,0.004,1.854-0.186,2.74 c-0.496,2.327-2.109,3.774-4.453,4.092c-0.59,0.08-1.203,0.078-1.799,0.03c-1.186-0.095-1.74-0.635-1.777-1.845 C364.423,433.066,364.464,431.382,364.464,429.219z"></path> <path fill="#052842" d="M323.138,435.442c-0.126,0.722-0.555,1.124-1.281,1.23c-0.381,0.055-0.759,0.134-1.139,0.203 c0,0.054,0.002,0.106,0.002,0.159c0.17,0.041,0.34,0.117,0.511,0.119c3.489,0.045,6.978,0.093,10.468,0.104 c0.635,0.003,1.288-0.084,1.905-0.24c2.771-0.7,4.936-2.166,5.765-5.049c0.901-3.131-0.623-6.383-3.607-7.852 c-1.72-0.846-3.569-1.194-5.474-1.211c-2.806-0.022-5.612-0.005-8.418,0.007c-0.202,0.002-0.403,0.097-0.75,0.186 c0.263,0.136,0.359,0.212,0.468,0.237c1.611,0.379,1.707,0.419,1.846,2.02c0.281,3.249,0.016,6.491-0.225,9.731 C323.199,435.207,323.159,435.323,323.138,435.442z M327.032,429.648c0.058-1.562,0.096-3.123,0.181-4.683 c0.061-1.126,0.172-1.205,1.288-1.255c4.008-0.178,6.664,2.357,6.794,6.554c0.026,0.829-0.077,1.692-0.293,2.493 c-0.903,3.344-4.007,4.199-6.604,3.774c-0.859-0.143-1.292-0.74-1.362-1.604c-0.022-0.278-0.077-0.556-0.079-0.836 c-0.008-1.481-0.004-2.964-0.004-4.446C326.98,429.648,327.005,429.648,327.032,429.648z"></path> <path fill="#052842" d="M466.896,428.277c1.346-1.326,1.247-3.149-0.305-4.238c-0.578-0.404-1.266-0.752-1.95-0.878 c-1.173-0.216-2.381-0.323-3.575-0.318c-2.404,0.014-4.809,0.128-7.213,0.212c-0.229,0.009-0.454,0.104-0.829,0.192 c0.263,0.119,0.333,0.167,0.409,0.183c1.755,0.344,1.865,0.362,1.928,2.144c0.102,2.963,0.08,5.932,0.102,8.897 c0.002,0.236-0.074,0.475-0.086,0.715c-0.046,0.888-0.463,1.414-1.379,1.521c-0.227,0.028-0.441,0.159-0.662,0.242 c0.015,0.041,0.029,0.083,0.045,0.124c2.568,0,5.135,0,7.701,0c-0.217-0.26-0.463-0.348-0.716-0.376 c-0.857-0.091-1.333-0.589-1.353-1.414c-0.041-1.631-0.014-3.264-0.014-4.886c2.023-0.489,3.398,0.234,3.941,2.105 c0.234,0.805,0.34,1.647,0.551,2.461c0.14,0.538,0.314,1.079,0.573,1.566c0.127,0.238,0.476,0.498,0.73,0.505 c1.716,0.045,3.433,0.023,5.15,0.023c0.007-0.062,0.016-0.124,0.024-0.188c-0.141-0.039-0.279-0.104-0.421-0.119 c-1.245-0.133-1.907-0.909-2.272-2.025c-0.112-0.341-0.256-0.677-0.335-1.026c-0.437-1.94-1.524-3.232-3.542-3.623 c-0.059-0.012-0.105-0.088-0.24-0.207c0.441-0.107,0.822-0.196,1.203-0.291C465.308,429.342,466.188,428.976,466.896,428.277z M462.287,428.825c-0.991,0.459-2.048,0.676-3.306,0.501c0-1.865,0-3.653,0-5.486c1.188-0.447,2.309-0.346,3.391,0.205 c0.943,0.482,1.4,1.282,1.379,2.347C463.729,427.482,463.296,428.358,462.287,428.825z"></path> <path fill="#052842" d="M430.097,427.693c1.266-1.161,1.145-2.959-0.258-3.939c-0.573-0.402-1.275-0.714-1.961-0.843 c-0.975-0.186-1.988-0.235-2.983-0.222c-2.244,0.033-4.487,0.136-6.729,0.218c-0.334,0.014-0.666,0.082-0.998,0.125 c0.202,0.296,0.404,0.402,0.62,0.448c1.211,0.259,1.307,0.343,1.491,1.512c0.057,0.354,0.105,0.717,0.105,1.075 c-0.002,2.888,0.008,5.775-0.034,8.661c-0.02,1.381-0.274,1.63-1.607,1.962c-0.179,0.043-0.349,0.121-0.521,0.185 c0.013,0.086,0.024,0.172,0.037,0.26c0.274,0,0.548-0.002,0.821,0c1.844,0.005,3.688,0.024,5.531,0.012 c1.242-0.01,2.487-0.019,3.725-0.114c1.305-0.103,2.509-0.517,3.449-1.502c1.426-1.494,1.279-3.518-0.427-4.666 c-0.683-0.459-1.511-0.709-2.28-1.037c-0.332-0.141-0.684-0.235-1.237-0.422c0.601-0.235,0.985-0.343,1.326-0.53 C428.829,428.51,429.55,428.193,430.097,427.693z M428.011,433.44c-0.064,1.472-0.859,2.433-2.33,2.809 c-0.154,0.039-0.311,0.074-0.469,0.096c-1.957,0.264-2.254,0.02-2.266-1.94c-0.006-1.278,0.033-2.559,0.061-3.837 c0.002-0.112,0.057-0.225,0.155-0.596c0.948,0.109,1.878,0.103,2.739,0.341C427.282,430.695,428.075,431.981,428.011,433.44z M426.169,428.615c-0.773,0.482-1.771,0.671-3.141,0.557c0-1.826,0-3.575,0-5.432c0.611-0.094,1.152-0.231,1.697-0.25 c1.282-0.046,2.278,0.645,2.59,1.726C427.709,426.582,427.249,427.944,426.169,428.615z"></path> <path fill="#052842" d="M549.081,435.252c-0.111,0.874-0.598,1.366-1.482,1.467c-0.252,0.028-0.498,0.107-0.746,0.162 c0.01,0.068,0.02,0.136,0.029,0.204c4.9,0,9.799,0,14.672,0c0.68-1.728,0.895-2.8,0.707-3.668c-0.178,0.126-0.371,0.2-0.471,0.34 c-1.951,2.721-4.803,2.747-7.697,2.528c-0.971-0.073-1.303-0.55-1.328-1.537c-0.033-1.283-0.016-2.566,0-3.85 c0.002-0.26,0.094-0.52,0.152-0.817c1.73,0.074,3.314,0.217,3.986,2.122c0.053,0.151,0.328,0.223,0.635,0.414 c0-1.953,0-3.732,0-5.724c-0.773,0.808-1.299,1.609-2.037,2.06c-0.764,0.465-1.736,0.526-2.723,0.183 c0.002-1.772-0.111-3.52,0.277-5.351c1.25,0,2.406-0.028,3.561,0.009c1.172,0.039,2.176,0.52,3.004,1.341 c0.371,0.367,0.699,0.775,1.074,1.14c0.178,0.174,0.414,0.288,0.625,0.429c0.078-0.045,0.154-0.088,0.23-0.133 c-0.266-1.146-0.531-2.293-0.818-3.535c-1.014,0-1.93,0.002-2.848,0c-0.883-0.003-1.766-0.008-2.648-0.014 c-0.922-0.005-1.846-0.005-2.768-0.016c-0.883-0.011-1.766-0.052-2.648-0.038c-0.879,0.013-1.777-0.226-2.713,0.11 c0.141,0.123,0.189,0.2,0.256,0.219c1.822,0.505,1.865,0.521,1.871,2.336c0.012,2.849-0.016,5.698-0.037,8.546 C549.195,434.536,549.126,434.894,549.081,435.252z"></path> <path fill="#052842" d="M379.919,436.701c-0.252,0.058-0.506,0.107-0.76,0.16c0.18,0.229,0.352,0.286,0.522,0.286 c3.892,0.014,7.784,0.049,11.677,0.017c3.168-0.024,2.318,0.511,3.18-2.448c0.109-0.376,0.415-0.8,0.006-1.33 c-0.23,0.199-0.436,0.353-0.612,0.533c-0.364,0.369-0.658,0.833-1.075,1.121c-2.041,1.407-4.344,1.541-6.695,1.19 c-0.845-0.126-1.127-0.541-1.16-1.444c-0.045-1.283-0.022-2.567-0.01-3.853c0.004-0.262,0.096-0.523,0.158-0.847 c1.768,0.061,3.383,0.204,4.049,2.182c0.039,0.115,0.294,0.158,0.567,0.296c0-1.053,0.023-1.966-0.007-2.876 c-0.029-0.883,0.172-1.777,0.044-2.807c-0.769,0.81-1.292,1.612-2.029,2.069c-0.762,0.473-1.735,0.509-2.735,0.2 c-0.109-1.786-0.02-3.521,0.266-5.271c0.398-0.048,0.714-0.091,1.029-0.122c2.671-0.276,5.046,0.198,6.691,2.586 c0.113,0.164,0.361,0.235,0.736,0.466c-0.118-1.395-0.455-2.517-0.803-3.767c-4.496,0-8.96,0-13.424,0 c-0.018,0.053-0.036,0.107-0.055,0.16c0.145,0.052,0.287,0.111,0.434,0.15c1.379,0.374,1.556,0.464,1.566,1.854 c0.024,3.248-0.023,6.499-0.105,9.747C381.347,436.109,380.972,436.456,379.919,436.701z"></path> <path fill="#052842" d="M441.357,423.265c0.041-0.01,0.059-0.121,0.121-0.262c-2.695,0-5.357,0-8.02,0 c-0.009,0.062-0.018,0.124-0.027,0.186c0.201,0.066,0.399,0.165,0.606,0.191c0.902,0.12,1.329,0.689,1.433,1.53 c0.073,0.595,0.109,1.197,0.111,1.797c0.005,2.047-0.037,4.092-0.014,6.137c0.025,2.202,0.961,3.427,3.097,3.998 c2.283,0.611,4.604,0.669,6.905,0.119c2.641-0.632,3.781-2.007,3.938-4.742c0.119-2.081,0.137-4.167,0.193-6.252 c0.043-1.552,0.593-2.439,2.013-2.709c0.036-0.007,0.049-0.124,0.099-0.26c-0.68,0-1.336,0-1.992,0 c-0.641,0-1.281-0.007-1.922,0.003c-0.616,0.009-1.268-0.3-1.956,0.264c2.103,0.012,2.454,1.438,2.519,2.969 c0.068,1.6,0.016,3.206-0.059,4.805c-0.037,0.835-0.16,1.681-0.372,2.489c-0.291,1.109-1,1.926-2.142,2.242 c-1.508,0.419-3.024,0.391-4.49-0.168c-1.166-0.443-1.918-1.271-2.082-2.564c-0.322-2.521-0.293-5.042,0.004-7.558 C439.505,423.903,439.759,423.676,441.357,423.265z"></path> <path fill="#052842" d="M400.878,423.553c0.996-0.368,1.978-0.271,2.93,0.132c1.133,0.479,2.074,1.201,2.722,2.275 c0.207,0.345,0.349,0.848,1.054,0.611c-0.197-1.312-0.223-2.64-0.797-4.132c-0.605,1.004-1.301,0.797-2.008,0.623 c-0.582-0.143-1.173-0.29-1.768-0.343c-1.883-0.171-3.699,0.024-5.23,1.28c-1.626,1.334-1.84,3.429-0.436,4.99 c0.516,0.574,1.229,1.043,1.941,1.354c1.096,0.479,2.279,0.75,3.404,1.166c0.746,0.274,1.52,0.556,2.17,0.996 c1.215,0.823,1.296,2.313,0.194,3.285c-0.432,0.381-1.008,0.676-1.566,0.816c-1.487,0.378-2.917,0.092-4.045-0.948 c-0.781-0.721-1.371-1.649-2.035-2.494c-0.229-0.291-0.423-0.607-0.633-0.914c-0.104,0.038-0.208,0.076-0.312,0.114 c-0.024,1.663,0.146,3.309,0.498,5.165c0.484-0.426,0.795-0.697,1.157-1.017c0.425,0.126,0.884,0.251,1.337,0.393 c1.477,0.458,2.979,0.587,4.516,0.422c1.329-0.143,2.461-0.688,3.425-1.592c2.056-1.929,1.794-4.909-0.674-6.285 c-1.205-0.672-2.601-1.005-3.915-1.477c-0.715-0.257-1.459-0.439-2.156-0.732c-0.775-0.326-1.373-0.859-1.375-1.793 C399.274,424.623,399.89,423.918,400.878,423.553z"></path> <path fill="#052842" d="M568.474,423.603c1.016-0.426,2.045-0.35,3.043,0.069c1.133,0.475,2.074,1.195,2.732,2.262 c0.207,0.338,0.334,0.85,1.027,0.639c-0.125-1.331-0.17-2.652-0.707-4.014c-0.395,0.313-0.639,0.507-0.918,0.729 c-0.984-0.198-1.879-0.441-2.789-0.546c-1.965-0.227-3.861-0.017-5.436,1.34c-1.57,1.355-1.746,3.362-0.354,4.897 c0.545,0.6,1.297,1.08,2.045,1.411c1.055,0.467,2.205,0.717,3.293,1.116c0.748,0.274,1.52,0.555,2.174,0.991 c1.232,0.826,1.324,2.277,0.219,3.273c-0.426,0.386-1,0.692-1.557,0.835c-1.531,0.389-2.992,0.083-4.141-1.004 c-0.773-0.729-1.357-1.662-2.012-2.515c-0.223-0.292-0.277-0.767-0.803-0.73c-0.25,1.429,0.113,4.315,0.762,5.154 c0.219-0.37,0.42-0.713,0.615-1.043c0.555,0.159,0.977,0.267,1.391,0.401c1.549,0.5,3.131,0.642,4.746,0.448 c1.551-0.188,2.846-0.886,3.783-2.104c0.418-0.543,0.711-1.269,0.816-1.949c0.271-1.745-0.514-3.095-2.037-3.864 c-1.203-0.607-2.533-0.964-3.811-1.421c-0.754-0.269-1.537-0.459-2.264-0.783c-0.766-0.341-1.355-0.897-1.279-1.843 C567.091,424.446,567.697,423.927,568.474,423.603z"></path> <path fill="#052842" d="M593.507,436.009c-0.371,0.281-0.836,0.493-1.289,0.601c-1.537,0.366-2.996,0.088-4.148-0.996 c-0.773-0.729-1.361-1.658-2.014-2.511c-0.225-0.295-0.287-0.753-0.965-0.762c0.115,1.726,0.107,3.388,0.576,4.992 c0.117,0.054,0.234,0.107,0.354,0.162c0.197-0.344,0.395-0.688,0.6-1.048c0.652,0.197,1.072,0.321,1.488,0.452 c1.514,0.476,3.057,0.607,4.633,0.421c1.551-0.184,2.848-0.878,3.789-2.093c0.42-0.544,0.715-1.266,0.824-1.946 c0.279-1.745-0.496-3.104-2.021-3.871c-1.238-0.624-2.611-0.981-3.926-1.452c-0.752-0.27-1.537-0.469-2.256-0.807 c-0.713-0.338-1.256-0.891-1.188-1.781c0.064-0.856,0.611-1.376,1.336-1.712c1.043-0.484,2.113-0.423,3.152,0.008 c1.135,0.471,2.08,1.19,2.738,2.254c0.213,0.341,0.336,0.853,0.934,0.688c0.107-1.443-0.211-3.186-0.74-3.935 c-0.275,0.216-0.549,0.43-0.814,0.637c-0.467-0.113-0.893-0.218-1.32-0.318c-1.705-0.404-3.406-0.502-5.098,0.076 c-1.813,0.621-2.979,1.959-3.039,3.492c-0.061,1.552,0.949,3.005,2.713,3.745c0.957,0.401,1.975,0.652,2.951,1.007 c0.863,0.313,1.764,0.581,2.549,1.038C594.851,433.238,594.913,434.944,593.507,436.009z"></path> <path fill="#052842" d="M478.686,436.603c-1.532,0.387-2.995,0.101-4.151-0.979c-0.776-0.725-1.363-1.657-2.017-2.51 c-0.226-0.295-0.286-0.75-0.975-0.79c0.12,1.729,0.151,3.387,0.591,5.225c0.493-0.457,0.799-0.74,1.125-1.042 c0.475,0.145,0.933,0.281,1.39,0.421c1.519,0.462,3.065,0.588,4.638,0.381c1.547-0.205,2.807-0.944,3.777-2.143 c1.482-1.83,1.008-4.479-1.152-5.68c-1.24-0.688-2.678-1.025-4.023-1.525c-0.859-0.319-1.782-0.536-2.557-0.998 c-1.266-0.757-1.232-2.221-0.01-3.057c0.877-0.6,1.865-0.721,2.879-0.457c1.452,0.378,2.613,1.179,3.433,2.461 c0.218,0.337,0.323,0.879,1.106,0.672c-0.217-1.292-0.247-2.623-0.738-3.997c-0.399,0.286-0.682,0.488-0.977,0.698 c-0.971-0.195-1.827-0.424-2.698-0.531c-1.968-0.245-3.86-0.038-5.452,1.288c-1.575,1.313-1.781,3.363-0.432,4.905 c0.509,0.581,1.215,1.063,1.924,1.377c1.092,0.483,2.275,0.757,3.402,1.171c0.748,0.274,1.523,0.547,2.18,0.979 c1.273,0.838,1.355,2.368,0.203,3.364C479.743,436.189,479.208,436.47,478.686,436.603z"></path> <path fill="#052842" d="M258.916,424.949c0.645,0.702,1.146,1.538,1.692,2.326c0.188,0.273,0.322,0.578,0.894,0.323 c-0.072-1.543-0.05-3.149-0.44-4.828c-0.309,0.109-0.553,0.119-0.652,0.243c-0.521,0.657-1.096,0.573-1.813,0.331 c-0.906-0.303-1.858-0.523-2.807-0.638c-2.779-0.331-5.261,0.354-7.266,2.395c-3.769,3.835-2.386,9.958,2.689,11.731 c1.08,0.376,2.266,0.548,3.415,0.611c2.68,0.144,4.947-0.831,6.74-2.845c0.304-0.343,0.708-0.69,0.328-1.469 c-0.335,0.276-0.578,0.455-0.796,0.66c-0.379,0.356-0.717,0.762-1.118,1.092c-2.917,2.402-6.885,1.5-8.417-1.956 c-0.931-2.101-1.007-4.302-0.216-6.457C252.405,423.035,256.441,422.254,258.916,424.949z"></path> <path fill="#052842" d="M280.623,426.346c0.165,0.288,0.389,0.533,0.914,0.211c-0.131-1.145-0.269-2.354-0.411-3.596 c-5.917,0-11.707,0-17.538,0c-0.263,1.252-0.542,2.438-0.436,3.984c0.451-0.353,0.745-0.481,0.884-0.709 c1.444-2.351,3.695-2.519,6.122-2.366c0.063,0.212,0.144,0.359,0.147,0.509c0.083,3.285,0.16,6.57,0.227,9.855 c0.005,0.276-0.07,0.555-0.109,0.833c-0.13,0.904-0.635,1.44-1.544,1.593c-0.37,0.063-0.736,0.147-1.195,0.24 c0.158,0.137,0.207,0.208,0.272,0.229c0.111,0.04,0.234,0.066,0.351,0.066c2.882-0.029,5.765-0.061,8.647-0.098 c0.034,0,0.082-0.031,0.098-0.063c0.014-0.025-0.009-0.069-0.032-0.19c-0.35-0.063-0.73-0.138-1.113-0.197 c-1.146-0.174-1.389-0.412-1.588-1.588c-0.046-0.276-0.101-0.555-0.109-0.833c-0.068-2.364-0.153-4.729-0.176-7.095 c-0.01-1.066,0.108-2.137,0.17-3.258C276.828,423.732,279.183,423.84,280.623,426.346z"></path> <path fill="#052842" d="M514.673,423.939c0.941,0.078,1.76,0.448,2.525,1.021c0.68,0.509,0.834,1.548,1.934,1.843 c0.064-1.341-0.115-2.542-0.354-3.83c-5.871,0-11.637,0-17.482,0c-0.215,1.216-0.518,2.399-0.453,3.615 c0.67,0.188,0.752-0.316,1.018-0.578c0.566-0.557,1.092-1.202,1.762-1.593c1.299-0.759,2.768-0.6,4.217-0.573 c0.074,0.233,0.154,0.381,0.158,0.53c0.08,3.326,0.154,6.653,0.221,9.981c0.004,0.236-0.066,0.475-0.102,0.713 c-0.133,0.904-0.637,1.441-1.547,1.594c-0.369,0.061-0.734,0.146-1.176,0.236c0.148,0.138,0.193,0.21,0.258,0.233 c0.111,0.04,0.234,0.066,0.352,0.064c2.885-0.031,5.768-0.064,8.65-0.103c0.035,0,0.086-0.031,0.098-0.062 c0.014-0.027-0.016-0.074-0.045-0.184c-0.311-0.06-0.652-0.136-0.996-0.187c-1.303-0.192-1.516-0.401-1.723-1.73 c-0.037-0.238-0.084-0.478-0.086-0.717c-0.027-3.127-0.049-6.255-0.061-9.383c0-0.306,0.092-0.612,0.16-1.036 C512.931,423.843,513.804,423.868,514.673,423.939z"></path> <path fill="#052842" d="M617.837,424.875c0.65,0.695,1.154,1.53,1.707,2.313c0.209,0.293,0.334,0.68,0.895,0.339 c-0.098-1.53-0.115-3.104-0.443-4.812c-0.395,0.231-0.676,0.321-0.84,0.51c-0.381,0.442-0.783,0.48-1.281,0.237 c-0.25-0.121-0.527-0.19-0.797-0.266c-2.371-0.655-4.734-0.834-7.068,0.152c-2.994,1.269-4.824,4.154-4.658,7.325 c0.152,2.868,2.186,5.351,5.168,6.272c1.758,0.543,3.557,0.604,5.355,0.28c1.854-0.336,3.295-1.406,4.527-2.778 c0.283-0.315,0.586-0.666,0.201-1.229c-0.244,0.183-0.469,0.321-0.656,0.499c-0.406,0.384-0.768,0.824-1.195,1.181 c-2.904,2.416-6.854,1.553-8.432-1.883c-0.996-2.173-1.059-4.449-0.203-6.672C611.407,422.994,615.376,422.249,617.837,424.875z"></path> <path fill="#052842" d="M239.102,436.623c-0.275,0.098-0.552,0.192-0.829,0.288c0.016,0.06,0.03,0.117,0.045,0.177 c2.576,0,5.153,0,7.729,0c0.043-0.096,0.086-0.19,0.129-0.286c-1.695-0.128-2.281-1.376-2.882-2.613 c-0.333-0.686-0.669-1.367-1.002-2.053c-1.364-2.815-2.717-5.637-4.104-8.439c-0.213-0.431-0.294-1.066-0.997-1.057 c-0.71,0.01-0.748,0.66-0.951,1.093c-1.655,3.521-3.282,7.056-4.909,10.589c-0.52,1.129-1.17,2.107-2.479,2.431 c-0.076,0.02-0.121,0.164-0.244,0.341c0.726,0,1.355-0.003,1.983,0.002c0.642,0.005,1.284,0.009,1.926,0.033 c1.264,0.052,1.263,0.058,1.754-0.271c-0.307-0.088-0.575-0.157-0.837-0.243c-1.071-0.353-1.394-0.815-1.121-1.892 c0.232-0.915,0.614-1.791,0.918-2.652c1.886,0,3.602,0,5.464,0c0.409,1.021,0.874,2.038,1.222,3.095 C240.177,435.944,239.897,436.34,239.102,436.623z M233.731,431.069c0.697-1.533,1.337-2.939,1.983-4.361 c0.673,0.566,1.903,2.998,2.209,4.361C236.573,431.069,235.242,431.069,233.731,431.069z"></path> <path fill="#052842" d="M300.911,423.166c-0.221-0.131-0.317-0.235-0.413-0.235c-2.602-0.001-5.204,0.007-7.806,0.021 c-0.043,0.002-0.084,0.111-0.209,0.287c1.633,0.082,2.167,1.316,2.75,2.502c0.248,0.501,0.508,1,0.744,1.508 c1.402,3.016,2.799,6.032,4.197,9.05c0.118,0.255,0.205,0.529,0.359,0.76c0.321,0.479,0.958,0.48,1.289-0.005 c0.202-0.295,0.345-0.633,0.495-0.961c1.226-2.654,2.442-5.314,3.673-7.966c0.422-0.909,0.865-1.807,1.328-2.695 c0.48-0.926,1.168-1.615,2.24-1.845c0.194-0.042,0.362-0.211,0.789-0.473c-1.234-0.394-2.213-0.031-3.17-0.056 c-0.993-0.026-2.003-0.335-2.996,0.071c0.215,0.137,0.444,0.169,0.658,0.245c0.896,0.317,1.243,0.948,1.033,1.879 c-0.052,0.233-0.124,0.467-0.219,0.688c-0.95,2.207-1.903,4.414-2.866,6.616c-0.104,0.24-0.276,0.45-0.448,0.724 c-0.138-0.162-0.236-0.233-0.276-0.331c-0.935-2.255-1.938-4.485-2.77-6.78C298.573,424.179,298.798,423.871,300.911,423.166z"></path> <path fill="#052842" d="M499.704,434.298c-0.246-0.505-0.502-1.003-0.746-1.508c-1.387-2.849-2.77-5.698-4.154-8.544 c-0.176-0.361-0.355-0.723-0.562-1.065c-0.45-0.75-0.947-0.722-1.382,0.071c-0.096,0.176-0.18,0.357-0.264,0.54 c-1.514,3.275-3.031,6.549-4.541,9.824c-0.645,1.398-1.312,2.773-2.971,3.242c-0.014,0.003-0.01,0.065-0.026,0.205 c0.899,0,1.792,0.036,2.683-0.009c0.898-0.046,1.823,0.277,2.943-0.125c-0.5-0.154-0.769-0.224-1.027-0.32 c-1.02-0.377-1.312-0.886-1.01-1.952c0.248-0.877,0.594-1.729,0.898-2.595c0.421-0.024,0.736-0.058,1.053-0.058 c1.441-0.007,2.882-0.003,4.422-0.003c0.42,1.036,0.885,2.017,1.211,3.038c0.304,0.952,0.05,1.31-0.892,1.609 c-0.243,0.078-0.487,0.157-0.73,0.235c0.011,0.064,0.019,0.131,0.028,0.195c0.854,0,1.709,0.002,2.563,0 c0.924,0,1.848,0.02,2.77-0.009c0.826-0.024,1.68,0.249,2.539-0.186C500.898,436.701,500.292,435.51,499.704,434.298z M490.013,431.112c0.73-1.588,1.4-3.045,2.182-4.739c0.884,1.631,1.617,3.073,2.275,4.739 C492.952,431.112,491.591,431.112,490.013,431.112z"></path> <path fill="#052842" d="M349.973,436.716c-0.141,0.043-0.274,0.109-0.411,0.165c0.008,0.065,0.014,0.131,0.021,0.197 c0.873,0,1.747,0,2.621,0c0.882,0,1.765,0.023,2.646-0.007c0.825-0.029,1.678,0.255,2.53-0.191 c-1.541-0.194-2.164-1.315-2.734-2.497c-0.26-0.542-0.529-1.078-0.793-1.618c-1.439-2.952-2.877-5.906-4.319-8.858 c-0.141-0.288-0.28-0.578-0.457-0.845c-0.373-0.563-0.854-0.562-1.208-0.008c-0.107,0.167-0.184,0.355-0.268,0.538 c-1.435,3.088-2.865,6.178-4.305,9.263c-0.355,0.762-0.723,1.519-1.121,2.259c-0.39,0.727-0.941,1.286-1.771,1.526 c-0.175,0.051-0.315,0.22-0.596,0.426c1.105,0,2.021,0,2.936,0c0.881,0,1.762,0,2.642,0c-0.198-0.262-0.412-0.333-0.627-0.406 c-1.209-0.404-1.517-0.862-1.197-2.053c0.235-0.88,0.605-1.723,0.925-2.606c1.033,0,1.953,0.002,2.873,0 c2.83-0.007,2.83-0.007,3.701,2.742C351.466,436.025,351.306,436.313,349.973,436.716z M344.874,431.198 c0.762-1.65,1.436-3.112,2.226-4.826c0.874,1.601,1.581,3.033,2.267,4.679C347.871,431.235,346.489,431.215,344.874,431.198z"></path> <path fill="#052842" d="M531.392,436.611c-0.318,0.084-0.633,0.174-0.951,0.262c0.018,0.071,0.035,0.141,0.051,0.21 c4.75,0,9.498,0,14.232,0c0.699-1.524,1.066-3.84,0.66-4.721c-0.342,0.469-0.65,0.868-0.934,1.283 c-0.889,1.305-2.014,2.321-3.598,2.633c-0.936,0.184-1.912,0.229-2.871,0.229c-1.098,0-1.332-0.262-1.477-1.317 c-0.025-0.199-0.039-0.401-0.039-0.602c0.004-2.848,0.006-5.697,0.021-8.547c0.004-0.399,0.084-0.797,0.123-1.196 c0.076-0.793,0.518-1.22,1.295-1.35c0.408-0.065,0.805-0.188,1.209-0.284c-0.137-0.237-0.271-0.302-0.404-0.302 c-2.645,0.005-5.291,0.015-7.938,0.031c-0.068,0-0.15,0.066-0.197,0.126c-0.043,0.055-0.047,0.14-0.092,0.285 c0.111,0.063,0.23,0.169,0.365,0.2c1.672,0.386,2.094,0.705,2.123,2.373c0.053,3.005-0.033,6.016-0.125,9.022 C532.82,435.918,532.335,436.359,531.392,436.611z"></path> <path fill="#052842" d="M521.431,436.682c-0.205,0.026-0.396,0.146-0.596,0.224c0.014,0.078,0.027,0.157,0.041,0.236 c2.545,0,5.09,0.002,7.633-0.006c0.131,0,0.262-0.085,0.496-0.164c-0.186-0.168-0.252-0.28-0.34-0.3 c-1.682-0.373-1.836-0.407-1.908-2.055c-0.133-3.039-0.123-6.084-0.156-9.127c-0.004-0.315,0.107-0.631,0.168-0.944 c0.117-0.621,0.486-0.986,1.107-1.112c0.324-0.064,0.643-0.152,0.965-0.229c-0.01-0.08-0.02-0.159-0.029-0.238 c-1.326-0.133-2.656,0.022-3.984,0.072c-1.311,0.048-2.631-0.278-3.943,0.055c0.137,0.152,0.277,0.231,0.422,0.24 c0.953,0.06,1.506,0.55,1.514,1.509c0.029,3.44,0.045,6.883,0.023,10.323C522.837,436.03,522.327,436.565,521.431,436.682z"></path> <path fill="#052842" d="M312.07,436.669c-0.203,0.06-0.397,0.147-0.596,0.223c0.014,0.086,0.027,0.17,0.041,0.255 c2.541,0,5.083,0.001,7.625-0.007c0.129,0,0.258-0.1,0.371-0.145c-0.031-0.137-0.029-0.198-0.048-0.203 c-0.181-0.063-0.36-0.136-0.548-0.167c-1.051-0.178-1.255-0.361-1.493-1.411c-0.062-0.273-0.124-0.552-0.13-0.83 c-0.061-2.483-0.123-4.967-0.151-7.452c-0.008-0.679,0.073-1.361,0.148-2.037c0.095-0.851,0.521-1.405,1.426-1.52 c0.235-0.03,0.461-0.138,0.691-0.211c-0.017-0.061-0.032-0.122-0.048-0.186c-2.611,0-5.223,0-7.834,0 c-0.016,0.068-0.033,0.136-0.049,0.206c0.131,0.05,0.259,0.137,0.393,0.147c1.246,0.081,1.568,0.657,1.582,1.707 c0.046,3.323,0.055,6.647,0.006,9.971C313.441,436.123,313.142,436.356,312.07,436.669z"></path> <path fill="#052842" d="M283.893,436.669c-0.203,0.06-0.397,0.147-0.595,0.223c0.013,0.086,0.027,0.17,0.041,0.255 c2.542,0,5.083,0.001,7.625-0.007c0.13,0,0.258-0.1,0.371-0.145c-0.03-0.137-0.029-0.198-0.047-0.203 c-0.181-0.063-0.361-0.136-0.548-0.167c-1.05-0.178-1.255-0.361-1.493-1.411c-0.062-0.273-0.124-0.552-0.13-0.83 c-0.061-2.483-0.122-4.967-0.151-7.452c-0.008-0.679,0.074-1.361,0.149-2.037c0.094-0.851,0.521-1.405,1.426-1.52 c0.235-0.03,0.461-0.138,0.691-0.211c-0.016-0.061-0.032-0.122-0.048-0.186c-2.611,0-5.222,0-7.833,0 c-0.017,0.068-0.033,0.136-0.05,0.206c0.131,0.05,0.259,0.137,0.393,0.147c1.247,0.081,1.568,0.657,1.583,1.707 c0.046,3.323,0.054,6.647,0.006,9.971C285.264,436.123,284.966,436.356,283.893,436.669z"></path> <path fill="#052842" d="M602.734,435.814c-0.008-0.832-0.734-1.436-1.725-1.429c-0.984,0.007-1.707,0.628-1.697,1.459 c0.012,0.807,0.787,1.457,1.729,1.45C601.995,437.288,602.741,436.635,602.734,435.814z"></path> <path fill="#052842" d="M624.515,434.385c-0.969-0.003-1.738,0.635-1.74,1.438c0,0.793,0.795,1.471,1.729,1.472 c0.939,0.004,1.725-0.66,1.729-1.46C626.236,435.01,625.497,434.387,624.515,434.385z"></path> </g> </svg> 