<?xml version="1.0" encoding="utf-8"?>
<!-- Generator: Adobe Illustrator 26.0.3, SVG Export Plug-In . SVG Version: 6.00 Build 0)  -->
<svg version="1.0" id="katman_1" xmlns="http://www.w3.org/2000/svg" xmlns:xlink="http://www.w3.org/1999/xlink" x="0px" y="0px"
	 viewBox="0 0 600 450" style="enable-background:new 0 0 600 450;" xml:space="preserve">
<style type="text/css">
	.st0{fill-rule:evenodd;clip-rule:evenodd;fill:#3F2776;}
</style>
<g transform="matrix(1,0,0,1,-40,-12211)">
	<path class="st0" d="M385.8,12399.4c4.2,0,7.6,0.4,8.1,0.8c0,0-5.4,17.7-10.9,36.1l-0.9,2.9c-4.1,13.6-8.2,27.1-10,33.3
		c-4.8,16-9.9,29.6-31.3,29.6c-11.3,0-17.1-3.7-17.1-8.6c0-2.9,1.9-6.6,3.6-9.5c0.9,0.4,5,2.9,11.6,2.9c9.1,0,11.1-5.7,12.7-11.1
		h-6.2l-25.1-75.6c0.7-0.4,3.1-0.8,7.6-0.8c10.7,0,14.5,4.1,17.1,11.9c1.1,3.3,3.7,11.5,6.3,20.1l0.7,2.1c2.5,7.8,4.9,15.6,5.8,18.5
		l0.2,0.8c0.1,0.4,0.2,0.4,0.2,0.4s9.4-32.4,11.9-41.5C372.6,12403.1,378.7,12399.4,385.8,12399.4z M159.3,12397.3
		c28.5,0,33.2,19.3,33.2,30.8v32c0,9.4,2.5,13.1,3.7,14.8c-1.1,0.4-4.2,2.1-11.8,2.1c-10.3,0-11.6-6.6-12.2-8.6
		c-1.5,1.6-8.3,8.6-22.3,8.6c-15.8,0-26.3-10.3-26.3-25.1c0-17.3,16.3-25.1,40.3-25.1h7.1v-2.1c0-6.2-3.6-12.3-16.2-12.3
		c-13.2,0-20.6,7.8-22.2,9c-1.6-2.5-4.7-6.6-4.7-11.1C127.8,12403.5,137.7,12397.3,159.3,12397.3z M527.9,12397.8
		c15.4,0,27.1,4.5,27.1,11.5c0,3.3-2.6,7.8-4.5,10.7c-1.6-1.2-9.7-7.4-21-7.4c-8.5,0-11.4,3.3-11.4,6.6c0,3.7,2.4,5.8,7.5,7
		c2.6,0.4,5.9,1.2,7.9,2.1c14,2.9,23.2,10.7,23.2,23.8c0,12.7-10.3,25.1-33.9,25.1c-16.9,0-27.1-4.5-27.1-11.1
		c0-4.1,2.7-7.8,5.1-11.5c1.3,1.2,9.9,7.8,20.7,7.8c9.3,0,13.5-3.3,13.5-7.4c0-4.5-2.5-7.4-9.3-8.6c-2.7-0.8-6-1.6-8.3-2.1
		c-12-2.9-20.8-10.3-20.8-23C496.6,12408,508.2,12397.8,527.9,12397.8z M472.2,12399.4c10.5,0,14.3,4.5,14.3,14.4v62
		c-0.2,0-3.4,0.8-7.2,0.8c-11.8,0-14.4-6.6-14.4-14.4v-62C466.2,12399.8,468.1,12399.4,472.2,12399.4z M291.5,12397.8
		c16.1,0,25.3,9.9,25.3,27.5v50.5h-21.5v-49.7c0-5.3-2.4-11.1-11.9-11.1c-8.9,0-11.9,4.9-11.9,11.1v49.7h-21.5v-49.7
		c0-5.3-2.4-11.1-11.9-11.1c-8.9,0-11.9,4.9-11.9,11.1v49.7h-21.5v-75.6c1-0.4,3.8-0.8,7.1-0.8c9.7,0,12.5,5.3,13.4,7.8
		c1.9-2.1,7.7-9.5,21.1-9.5c15.1,0,19.7,8.2,21.3,11.1C269.9,12406.4,277,12397.8,291.5,12397.8z M442.4,12397.8
		c10.2,0,15.9,3.3,16.6,3.7c-4.7,2.5-8.1,17.7-19.4,17.7c-5.3,0-8.6-1.6-11.7-1.6c-2.7,0-4.3,2.1-4.3,4.9v53.4h-21.5v-75.6
		c0.9-0.4,3.4-0.8,7.1-0.8c9.4,0,12.8,3.7,14,9.4C424.5,12406,429.8,12397.8,442.4,12397.8z M170.9,12438.4h-2.8
		c-15.3,0-23,4.1-23,13.6c0,6.2,4.5,11.1,12.8,11.1c6.7,0,13.1-4.9,13.1-8.6V12438.4z M475.7,12370.6c6.9,0,11.1,4.5,11.1,9.9
		c0,5.3-4.4,9.9-11.1,9.9c-6.7,0-11.1-4.1-11.1-9.9C464.6,12375.2,468.5,12370.6,475.7,12370.6z"/>
</g>
</svg>
