<svg id="visual" viewBox="0 0 2880 1500" width="2880" height="1500" xmlns="http://www.w3.org/2000/svg" xmlns:xlink="http://www.w3.org/1999/xlink" version="1.1"><rect x="0" y="0" width="2880" height="1500" fill="#001220"></rect><defs><linearGradient id="grad1_0" x1="47.9%" y1="100%" x2="100%" y2="0%"><stop offset="11.600000000000001%" stop-color="#001220" stop-opacity="1"></stop><stop offset="88.4%" stop-color="#001220" stop-opacity="1"></stop></linearGradient></defs><defs><linearGradient id="grad2_0" x1="0%" y1="100%" x2="52.1%" y2="0%"><stop offset="11.600000000000001%" stop-color="#001220" stop-opacity="1"></stop><stop offset="88.4%" stop-color="#001220" stop-opacity="1"></stop></linearGradient></defs><g transform="translate(2880, 1500)"><path d="M-600 0C-593.5 -80 -587 -160.1 -554.3 -229.6C-521.6 -299.1 -462.7 -358.1 -400.9 -400.9C-339.2 -443.7 -274.7 -470.3 -207.4 -500.7C-140.1 -531.2 -70.1 -565.6 0 -600L0 0Z" fill="#3cfaa4"></path></g><g transform="translate(0, 0)"><path d="M600 0C599.9 86.1 599.9 172.2 554.3 229.6C508.8 287 417.7 315.6 354.3 354.3C290.8 392.9 255 441.5 200.5 484.1C146.1 526.7 73 563.4 0 600L0 0Z" fill="#3cfaa4"></path></g></svg>