<svg id="visual" viewBox="0 0 2880 1500" width="2880" height="1500" xmlns="http://www.w3.org/2000/svg" xmlns:xlink="http://www.w3.org/1999/xlink" version="1.1"><rect x="0" y="0" width="2880" height="1500" fill="#001220"></rect><path d="M0 879L68.5 880.5C137 882 274 885 411.2 910.7C548.3 936.3 685.7 984.7 822.8 998.3C960 1012 1097 991 1234.2 970.7C1371.3 950.3 1508.7 930.7 1645.8 929.7C1783 928.7 1920 946.3 2057.2 940.8C2194.3 935.3 2331.7 906.7 2468.8 898C2606 889.3 2743 900.7 2811.5 906.3L2880 912L2880 1501L2811.5 1501C2743 1501 2606 1501 2468.8 1501C2331.7 1501 2194.3 1501 2057.2 1501C1920 1501 1783 1501 1645.8 1501C1508.7 1501 1371.3 1501 1234.2 1501C1097 1501 960 1501 822.8 1501C685.7 1501 548.3 1501 411.2 1501C274 1501 137 1501 68.5 1501L0 1501Z" fill="#69fa88"></path><path d="M0 1179L68.5 1162.2C137 1145.3 274 1111.7 411.2 1092.7C548.3 1073.7 685.7 1069.3 822.8 1058.5C960 1047.7 1097 1030.3 1234.2 1048.8C1371.3 1067.3 1508.7 1121.7 1645.8 1129.8C1783 1138 1920 1100 2057.2 1070.5C2194.3 1041 2331.7 1020 2468.8 1040.5C2606 1061 2743 1123 2811.5 1154L2880 1185L2880 1501L2811.5 1501C2743 1501 2606 1501 2468.8 1501C2331.7 1501 2194.3 1501 2057.2 1501C1920 1501 1783 1501 1645.8 1501C1508.7 1501 1371.3 1501 1234.2 1501C1097 1501 960 1501 822.8 1501C685.7 1501 548.3 1501 411.2 1501C274 1501 137 1501 68.5 1501L0 1501Z" fill="#00d8dd"></path><path d="M0 1252L68.5 1238.5C137 1225 274 1198 411.2 1180.2C548.3 1162.3 685.7 1153.7 822.8 1158.3C960 1163 1097 1181 1234.2 1196.8C1371.3 1212.7 1508.7 1226.3 1645.8 1229.3C1783 1232.3 1920 1224.7 2057.2 1204.7C2194.3 1184.7 2331.7 1152.3 2468.8 1134.8C2606 1117.3 2743 1114.7 2811.5 1113.3L2880 1112L2880 1501L2811.5 1501C2743 1501 2606 1501 2468.8 1501C2331.7 1501 2194.3 1501 2057.2 1501C1920 1501 1783 1501 1645.8 1501C1508.7 1501 1371.3 1501 1234.2 1501C1097 1501 960 1501 822.8 1501C685.7 1501 548.3 1501 411.2 1501C274 1501 137 1501 68.5 1501L0 1501Z" fill="#00a7e5"></path><path d="M0 1306L68.5 1299C137 1292 274 1278 411.2 1275.7C548.3 1273.3 685.7 1282.7 822.8 1290C960 1297.3 1097 1302.7 1234.2 1302.5C1371.3 1302.3 1508.7 1296.7 1645.8 1299.8C1783 1303 1920 1315 2057.2 1304.7C2194.3 1294.3 2331.7 1261.7 2468.8 1241C2606 1220.3 2743 1211.7 2811.5 1207.3L2880 1203L2880 1501L2811.5 1501C2743 1501 2606 1501 2468.8 1501C2331.7 1501 2194.3 1501 2057.2 1501C1920 1501 1783 1501 1645.8 1501C1508.7 1501 1371.3 1501 1234.2 1501C1097 1501 960 1501 822.8 1501C685.7 1501 548.3 1501 411.2 1501C274 1501 137 1501 68.5 1501L0 1501Z" fill="#0071cc"></path><path d="M0 1312L68.5 1322.8C137 1333.7 274 1355.3 411.2 1359.8C548.3 1364.3 685.7 1351.7 822.8 1347C960 1342.3 1097 1345.7 1234.2 1343.8C1371.3 1342 1508.7 1335 1645.8 1329.8C1783 1324.7 1920 1321.3 2057.2 1335.7C2194.3 1350 2331.7 1382 2468.8 1391.3C2606 1400.7 2743 1387.3 2811.5 1380.7L2880 1374L2880 1501L2811.5 1501C2743 1501 2606 1501 2468.8 1501C2331.7 1501 2194.3 1501 2057.2 1501C1920 1501 1783 1501 1645.8 1501C1508.7 1501 1371.3 1501 1234.2 1501C1097 1501 960 1501 822.8 1501C685.7 1501 548.3 1501 411.2 1501C274 1501 137 1501 68.5 1501L0 1501Z" fill="#42329d"></path></svg>