<?xml version="1.0" encoding="utf-8"?>
<!-- Generator: Adobe Illustrator 21.1.0, SVG Export Plug-In . SVG Version: 6.00 Build 0)  -->
<svg version="1.1" id="Logo_BYMA" xmlns="http://www.w3.org/2000/svg" xmlns:xlink="http://www.w3.org/1999/xlink" x="0px" y="0px"
	 viewBox="0 0 853.9 317.6" style="enable-background:new 0 0 853.9 317.6;" xml:space="preserve">
<style type="text/css">
	.st0{fill:#00B6B8;}
	.st1{fill:#00BABA;}
	.st2{fill:#8DD906;}
	.st3{fill:#0183D9;}
	.st4{fill:#00A8F2;}
	.st5{fill:#00A1DF;}
	.st6{fill:#00C000;}
	.st7{fill:#1C426E;}
</style>
<g>
	<g>
		<g>
			<path class="st0" d="M132.8,66.9l-5.5-45.7c-6.2,0.7-14.5,2.5-20.6,4.4l13.5,44C124.2,68.4,128.5,67.5,132.8,66.9z"/>
			<path class="st0" d="M30,94.6c-2.5,5.7-5.1,13.8-6.5,20.1L68.4,125c1-4.2,2.3-8.3,4-12.3L30,94.6z"/>
			<path class="st0" d="M59,231.2l31.3-33.7c-3.2-3-6.1-6.2-8.7-9.6l-36.8,27.6C48.6,220.5,54.4,226.9,59,231.2z"/>
			<path class="st0" d="M151.6,217.3l5.5,45.7c6.2-0.7,14.5-2.5,20.6-4.4l-13.5-44C160.1,215.9,155.9,216.8,151.6,217.3z"/>
			<path class="st0" d="M254.3,189.7c2.5-5.7,5.1-13.8,6.5-20.1L216,159.3c-1,4.2-2.3,8.3-4,12.3L254.3,189.7z"/>
			<path class="st0" d="M225.3,53.1L194,86.8c3.2,3,6.1,6.2,8.7,9.6l36.8-27.6C235.7,63.8,230,57.4,225.3,53.1z"/>
		</g>
		<g>
			<path class="st1" d="M132.8,66.9l-5.5-45.7c-6.2,0.7-14.5,2.5-20.6,4.4l13.5,44C124.2,68.4,128.5,67.5,132.8,66.9z"/>
			<path class="st1" d="M30,94.6c-2.5,5.7-5.1,13.8-6.5,20.1L68.4,125c1-4.2,2.3-8.3,4-12.3L30,94.6z"/>
			<path class="st1" d="M59,231.2l31.3-33.7c-3.2-3-6.1-6.2-8.7-9.6l-36.8,27.6C48.6,220.5,54.4,226.9,59,231.2z"/>
			<path class="st1" d="M151.6,217.3l5.5,45.7c6.2-0.7,14.5-2.5,20.6-4.4l-13.5-44C160.1,215.9,155.9,216.8,151.6,217.3z"/>
			<path class="st1" d="M254.3,189.7c2.5-5.7,5.1-13.8,6.5-20.1L216,159.3c-1,4.2-2.3,8.3-4,12.3L254.3,189.7z"/>
			<path class="st1" d="M225.3,53.1L194,86.8c3.2,3,6.1,6.2,8.7,9.6l36.8-27.6C235.7,63.8,230,57.4,225.3,53.1z"/>
		</g>
	</g>
	<g>
		<g>
			<path class="st2" d="M81.7,96.4c2.6-3.5,5.5-6.7,8.6-9.6L77.7,73.2L53.4,47.4C48,52.5,43,58,38.5,63.9l8.6,6.5L81.7,96.4z"/>
			<path class="st2" d="M22.6,192.8l10.2-4.3l39.6-16.9c-1.6-3.9-3-8-4-12.3l-18.1,4.1l-34.5,8.1C17.4,178.8,19.7,186,22.6,192.8z"
				/>
			<path class="st2" d="M120.2,214.7l-5.6,18.2l-10.1,33.5c7.1,2.1,14.4,3.7,21.8,4.6l1.4-11.2l5.1-42.4
				C128.5,216.8,124.2,215.9,120.2,214.7z"/>
			<path class="st2" d="M202.6,187.9c-2.6,3.5-5.5,6.7-8.6,9.6l12.9,13.8l24.1,25.6c5.4-5.1,10.4-10.6,14.9-16.5l-8.8-6.7
				L202.6,187.9z"/>
			<path class="st2" d="M261.7,91.5l-10.2,4.3l-39.6,16.9c1.6,3.9,3,8,4,12.3l18.6-4.3l34-8C266.9,105.4,264.6,98.3,261.7,91.5z"/>
			<path class="st2" d="M164.2,69.6l5.5-17.9l10.2-33.8c-7.1-2.1-14.4-3.7-21.8-4.6L156.7,24l-5.2,42.9
				C155.9,67.5,160.1,68.3,164.2,69.6z"/>
		</g>
		<g>
			<path class="st2" d="M81.7,96.4c2.6-3.5,5.5-6.7,8.6-9.6L77.7,73.2L53.4,47.4C48,52.5,43,58,38.5,63.9l8.6,6.5L81.7,96.4z"/>
			<path class="st2" d="M22.6,192.8l10.2-4.3l39.6-16.9c-1.6-3.9-3-8-4-12.3l-18.1,4.1l-34.5,8.1C17.4,178.8,19.7,186,22.6,192.8z"
				/>
			<path class="st2" d="M120.2,214.7l-5.6,18.2l-10.1,33.5c7.1,2.1,14.4,3.7,21.8,4.6l1.4-11.2l5.1-42.4
				C128.5,216.8,124.2,215.9,120.2,214.7z"/>
			<path class="st2" d="M202.6,187.9c-2.6,3.5-5.5,6.7-8.6,9.6l12.9,13.8l24.1,25.6c5.4-5.1,10.4-10.6,14.9-16.5l-8.8-6.7
				L202.6,187.9z"/>
			<path class="st2" d="M261.7,91.5l-10.2,4.3l-39.6,16.9c1.6,3.9,3,8,4,12.3l18.6-4.3l34-8C266.9,105.4,264.6,98.3,261.7,91.5z"/>
			<path class="st2" d="M164.2,69.6l5.5-17.9l10.2-33.8c-7.1-2.1-14.4-3.7-21.8-4.6L156.7,24l-5.2,42.9
				C155.9,67.5,160.1,68.3,164.2,69.6z"/>
		</g>
	</g>
	<g>
		<path class="st3" d="M95.8,7.7c-7.8,2.7-15.4,6.1-22.6,10.1l24.3,43.6c4.6-2.6,9.4-4.7,14.5-6.5L95.8,7.7z"/>
		<path class="st3" d="M2.5,115.1c-1.6,8-2.4,16.3-2.5,24.6l50,0.8c0.1-5.4,0.6-10.6,1.6-15.7L2.5,115.1z"/>
		<path class="st3" d="M48.9,249.5c6.2,5.4,13,10.3,20,14.5l25.7-43c-4.5-2.7-8.8-5.8-12.8-9.3L48.9,249.5z"/>
		<path class="st3" d="M188.5,276.6c7.8-2.7,15.4-6.1,22.6-10.1l-24.4-43.8c-4.6,2.5-9.4,4.7-14.4,6.4L188.5,276.6z"/>
		<path class="st3" d="M281.8,169.2c1.6-8,2.4-16.3,2.5-24.6l-50-0.8c-0.1,5.4-0.7,10.6-1.7,15.7L281.8,169.2z"/>
		<path class="st3" d="M235.4,34.8c-6.2-5.4-13-10.3-20-14.5l-25.6,42.8c4.5,2.7,8.8,5.9,12.8,9.3L235.4,34.8z"/>
	</g>
	<g>
		<g>
			<path class="st4" d="M68.9,20.3c-7.1,4.3-13.8,9.1-20,14.5l32.8,37.6c4-3.5,8.3-6.6,12.8-9.3L68.9,20.3z"/>
			<path class="st4" d="M0,144.7c0.1,4.2,0.3,8.3,0.8,12.3c0.4,4,1,8.1,1.8,12.3l49.1-9.6c-1-5.1-1.6-10.4-1.7-15.7L0,144.7z"/>
			<path class="st4" d="M73.3,266.5c7.2,4,14.8,7.4,22.6,10.1l16.2-47.4c-5-1.7-9.9-3.9-14.4-6.4L73.3,266.5z"/>
			<path class="st4" d="M215.5,264c7.1-4.3,13.8-9.1,20-14.5l-32.9-37.8c-4,3.5-8.3,6.6-12.8,9.3L215.5,264z"/>
			<path class="st4" d="M284.3,139.6c-0.1-4.2-0.3-8.3-0.8-12.3c-0.4-4-1-8.1-1.8-12.3l-49.1,9.6c1,5.1,1.5,10.4,1.6,15.7
				L284.3,139.6z"/>
			<path class="st4" d="M187.2,60.6L211,17.7c-7.2-4-14.8-7.4-22.6-10.1l-16.1,47.2c5,1.7,9.9,3.9,14.5,6.5L187.2,60.6z"/>
		</g>
		<g>
			<path class="st5" d="M68.9,20.3c-7.1,4.3-13.8,9.1-20,14.5l32.8,37.6c4-3.5,8.3-6.6,12.8-9.3L68.9,20.3z"/>
			<path class="st5" d="M0,144.7c0.1,4.2,0.3,8.3,0.8,12.3c0.4,4,1,8.1,1.8,12.3l49.1-9.6c-1-5.1-1.6-10.4-1.7-15.7L0,144.7z"/>
			<path class="st5" d="M73.3,266.5c7.2,4,14.8,7.4,22.6,10.1l16.2-47.4c-5-1.7-9.9-3.9-14.4-6.4L73.3,266.5z"/>
			<path class="st5" d="M215.5,264c7.1-4.3,13.8-9.1,20-14.5l-32.9-37.8c-4,3.5-8.3,6.6-12.8,9.3L215.5,264z"/>
			<path class="st5" d="M284.3,139.6c-0.1-4.2-0.3-8.3-0.8-12.3c-0.4-4-1-8.1-1.8-12.3l-49.1,9.6c1,5.1,1.5,10.4,1.6,15.7
				L284.3,139.6z"/>
			<path class="st5" d="M187.2,60.6L211,17.7c-7.2-4-14.8-7.4-22.6-10.1l-16.1,47.2c5,1.7,9.9,3.9,14.5,6.5L187.2,60.6z"/>
		</g>
	</g>
	<g>
		<path class="st6" d="M25.7,60.6C21,67.3,16.8,74.5,13.3,82l45.3,21c2.2-4.8,4.9-9.4,7.9-13.7L25.7,60.6z"/>
		<path class="st6" d="M13.3,202.3c3.5,7.4,7.6,14.6,12.4,21.4l41-28.8c-3-4.3-5.7-8.9-7.9-13.7L13.3,202.3z"/>
		<path class="st6" d="M258.7,223.6c4.7-6.7,8.9-13.9,12.4-21.4l-45.4-21.1c-2.3,4.8-4.9,9.4-7.9,13.7L258.7,223.6z"/>
		<path class="st6" d="M271,82c-3.5-7.4-7.6-14.6-12.4-21.4l-40.8,28.7c3,4.3,5.7,8.9,7.9,13.7L271,82z"/>
		<path class="st6" d="M150.1,50.1l4.4-49.6c-4-0.3-8.1-0.5-12.1-0.5c-4.2,0-8.4,0.2-12.6,0.6l4.4,49.6c2.6-0.2,5.3-0.3,7.9-0.3
			C144.8,49.8,147.5,49.9,150.1,50.1z"/>
		<path class="st6" d="M134.3,233.9l-4.4,49.9c4.2,0.4,8.3,0.5,12.4,0.5c4,0,8.2-0.2,12.3-0.5l-4.5-49.9c-2.6,0.2-5.3,0.3-7.9,0.3
			C139.5,234.2,136.9,234.1,134.3,233.9z"/>
	</g>
</g>
<g>
	<path class="st7" d="M439.3,150.3c11.8,3.5,22.1,13.2,22.1,29.4c0,18.8-13.4,35.5-43.6,35.5h-52.3V93.5H418c21.9,0,37,14.8,37,31.6
		c0,13.6-9,22.1-15.6,24.5v0.7H439.3z M412.4,141.6c8,0,13.2-4.9,13.2-12c0-6.8-5-12-13.4-12h-17.6v24H412.4z M415.2,191
		c10.1,0,15.5-5.7,15.5-13.9c0-8.7-5.9-13.9-15.5-13.9h-20.5V191H415.2z"/>
	<path class="st7" d="M535.1,215.1h-29.2v-48l-45.4-73.7h33.7l18.8,33c4.3,7.7,8,14.3,8.2,14.4h0.5c0.2-0.2,3.8-7,8.2-14.4l19.5-33
		h31.1l-45.4,73.7L535.1,215.1L535.1,215.1z"/>
	<path class="st7" d="M685.6,185.4c0-28.9,0.3-43.1,0.3-43.3h-0.3c-0.2,0.2-6.1,11.1-12,21.5L661.8,185h-16.3l-11.8-21
		c-6.1-10.8-11.8-21.7-12-21.9h-0.5c0,0.2,0.3,14.4,0.3,43.3v29.7h-29.2V93.5h30.9l30.6,54.4h0.5l30.8-54.4h29.7v121.7h-29.2
		L685.6,185.4L685.6,185.4z"/>
	<path class="st7" d="M764.8,195l-7.3,20.2h-30.8l46.9-121.7h33.2l47.1,121.7h-31.3l-7.3-20.2H764.8z M797.2,144.2
		c-3.8-10.1-6.6-17.7-6.8-17.9h-0.5c-0.2,0.2-3,7.7-6.8,17.7l-8.7,24.3h31.5L797.2,144.2z"/>
</g>
</svg>
