<svg id="visual" viewBox="0 0 2880 1500" width="2880" height="1500" xmlns="http://www.w3.org/2000/svg" xmlns:xlink="http://www.w3.org/1999/xlink" version="1.1"><path d="M0 556L262 556L262 511L524 511L524 526L785 526L785 556L1047 556L1047 256L1309 256L1309 451L1571 451L1571 286L1833 286L1833 241L2095 241L2095 256L2356 256L2356 421L2618 421L2618 241L2880 241L2880 406L2880 0L2880 0L2618 0L2618 0L2356 0L2356 0L2095 0L2095 0L1833 0L1833 0L1571 0L1571 0L1309 0L1309 0L1047 0L1047 0L785 0L785 0L524 0L524 0L262 0L262 0L0 0Z" fill="#09132a"></path><path d="M0 841L262 841L262 661L524 661L524 796L785 796L785 811L1047 811L1047 391L1309 391L1309 676L1571 676L1571 541L1833 541L1833 361L2095 361L2095 526L2356 526L2356 751L2618 751L2618 541L2880 541L2880 511L2880 404L2880 239L2618 239L2618 419L2356 419L2356 254L2095 254L2095 239L1833 239L1833 284L1571 284L1571 449L1309 449L1309 254L1047 254L1047 554L785 554L785 524L524 524L524 509L262 509L262 554L0 554Z" fill="#0a1537"></path><path d="M0 1066L262 1066L262 916L524 916L524 1141L785 1141L785 1006L1047 1006L1047 886L1309 886L1309 976L1571 976L1571 1006L1833 1006L1833 946L2095 946L2095 1141L2356 1141L2356 1081L2618 1081L2618 1156L2880 1156L2880 1066L2880 509L2880 539L2618 539L2618 749L2356 749L2356 524L2095 524L2095 359L1833 359L1833 539L1571 539L1571 674L1309 674L1309 389L1047 389L1047 809L785 809L785 794L524 794L524 659L262 659L262 839L0 839Z" fill="#111643"></path><path d="M0 1246L262 1246L262 1336L524 1336L524 1306L785 1306L785 1381L1047 1381L1047 1276L1309 1276L1309 1321L1571 1321L1571 1366L1833 1366L1833 1306L2095 1306L2095 1321L2356 1321L2356 1396L2618 1396L2618 1306L2880 1306L2880 1306L2880 1064L2880 1154L2618 1154L2618 1079L2356 1079L2356 1139L2095 1139L2095 944L1833 944L1833 1004L1571 1004L1571 974L1309 974L1309 884L1047 884L1047 1004L785 1004L785 1139L524 1139L524 914L262 914L262 1064L0 1064Z" fill="#1d154e"></path><path d="M0 1501L262 1501L262 1501L524 1501L524 1501L785 1501L785 1501L1047 1501L1047 1501L1309 1501L1309 1501L1571 1501L1571 1501L1833 1501L1833 1501L2095 1501L2095 1501L2356 1501L2356 1501L2618 1501L2618 1501L2880 1501L2880 1501L2880 1304L2880 1304L2618 1304L2618 1394L2356 1394L2356 1319L2095 1319L2095 1304L1833 1304L1833 1364L1571 1364L1571 1319L1309 1319L1309 1274L1047 1274L1047 1379L785 1379L785 1304L524 1304L524 1334L262 1334L262 1244L0 1244Z" fill="#2d1057"></path></svg>