<svg id="visual" viewBox="0 0 2880 1500" width="2880" height="1500" xmlns="http://www.w3.org/2000/svg" xmlns:xlink="http://www.w3.org/1999/xlink" version="1.1"><rect x="0" y="0" width="2880" height="1500" fill="#0d0f24"></rect><path d="M0 1179L68.5 1143.5C137 1108 274 1037 411.2 1003.8C548.3 970.7 685.7 975.3 822.8 1026.3C960 1077.3 1097 1174.7 1234.2 1211C1371.3 1247.3 1508.7 1222.7 1645.8 1221.8C1783 1221 1920 1244 2057.2 1255.7C2194.3 1267.3 2331.7 1267.7 2468.8 1264.3C2606 1261 2743 1254 2811.5 1250.5L2880 1247L2880 1501L2811.5 1501C2743 1501 2606 1501 2468.8 1501C2331.7 1501 2194.3 1501 2057.2 1501C1920 1501 1783 1501 1645.8 1501C1508.7 1501 1371.3 1501 1234.2 1501C1097 1501 960 1501 822.8 1501C685.7 1501 548.3 1501 411.2 1501C274 1501 137 1501 68.5 1501L0 1501Z" fill="#355686" stroke-linecap="round" stroke-linejoin="miter"></path></svg>